<?xml version="1.0" encoding="UTF-8"?>
<!DOCTYPE svg PUBLIC "-//W3C//DTD SVG 1.1//EN" "http://www.w3.org/Graphics/SVG/1.1/DTD/svg11.dtd">
<svg xmlns="http://www.w3.org/2000/svg" version="1.1" width="256px" height="256px" style="shape-rendering:geometricPrecision; text-rendering:geometricPrecision; image-rendering:optimizeQuality; fill-rule:evenodd; clip-rule:evenodd" xmlns:xlink="http://www.w3.org/1999/xlink">
<g><path style="opacity:0.035" fill="#030100" d="M 225.5,255.5 C 224.833,255.5 224.167,255.5 223.5,255.5C 223.5,235.5 223.5,215.5 223.5,195.5C 219.485,196.013 215.819,197.346 212.5,199.5C 212.67,198.178 212.337,197.011 211.5,196C 207.767,195.934 204.267,195.101 201,193.5C 189.341,195.914 177.507,196.914 165.5,196.5C 166.42,204.509 166.753,212.342 166.5,220C 164.307,222.025 163.307,224.525 163.5,227.5C 157.618,230.682 151.284,232.682 144.5,233.5C 137.346,233.68 132.179,230.68 129,224.5C 125.703,222.205 122.703,219.538 120,216.5C 119.517,217.448 119.351,218.448 119.5,219.5C 118.167,219.5 116.833,219.5 115.5,219.5C 115.5,218.167 115.5,216.833 115.5,215.5C 116.552,215.649 117.552,215.483 118.5,215C 113.771,210.608 109.438,205.941 105.5,201C 102.321,199.539 98.9881,198.705 95.5,198.5C 96.3428,193.906 95.0094,190.239 91.5,187.5C 90.3252,183.817 90.3252,180.15 91.5,176.5C 86.2063,176.318 86.2063,175.818 91.5,175C 88.595,172.657 85.4283,170.824 82,169.5C 81.7931,173.089 81.2931,176.589 80.5,180C 81.448,180.483 82.448,180.649 83.5,180.5C 83.5,181.5 83.5,182.5 83.5,183.5C 80.9781,184.665 80.9781,185.998 83.5,187.5C 84.2186,190.073 85.2186,192.573 86.5,195C 86.0426,195.414 85.7093,195.914 85.5,196.5C 86.9459,198.618 87.6126,200.951 87.5,203.5C 88.8333,203.5 90.1667,203.5 91.5,203.5C 91.7733,205.451 91.1066,206.951 89.5,208C 90.5762,209.726 90.7429,211.559 90,213.5C 88.3228,215.525 87.3228,217.859 87,220.5C 82.5279,221.652 79.0279,224.152 76.5,228C 70.7981,229.404 65.2981,231.237 60,233.5C 55.9443,233.02 52.1109,231.853 48.5,230C 47.0921,226.874 45.7588,223.707 44.5,220.5C 42.36,219.527 40.6933,218.027 39.5,216C 34.1667,215.333 34.1667,214.667 39.5,214C 34.1667,213.333 34.1667,212.667 39.5,212C 36.3724,209.595 35.3724,206.595 36.5,203C 34.1163,200.274 32.6163,197.107 32,193.5C 32.1433,186.952 31.9766,180.452 31.5,174C 31.3327,170.63 31.9994,167.463 33.5,164.5C 31.9951,163.158 31.3285,161.492 31.5,159.5C 35.1313,159.968 38.4646,159.301 41.5,157.5C 42.6859,154.537 41.6859,152.537 38.5,151.5C 34.6533,147.801 31.82,143.467 30,138.5C 21.0359,133.39 18.7025,126.057 23,116.5C 27.2212,107.727 33.7212,102.227 42.5,100C 42.2371,96.9416 42.0705,93.7749 42,90.5C 37.5609,84.9529 35.3943,78.6196 35.5,71.5C 30.1667,70.8333 30.1667,70.1667 35.5,69.5C 35.5,66.1667 35.5,62.8333 35.5,59.5C 39.6792,59.5408 42.5125,57.5408 44,53.5C 47.0754,52.6865 48.7421,50.6865 49,47.5C 49.2189,48.938 49.7189,50.2713 50.5,51.5C 55.4473,50.7174 60.4473,50.2174 65.5,50C 67.6755,45.6677 70.6755,42.1677 74.5,39.5C 76.1757,37.1663 78.509,36.1663 81.5,36.5C 81.4924,30.7924 81.9924,30.4591 83,35.5C 84.1545,34.2567 85.4878,33.2567 87,32.5C 87.3333,30.8333 87.6667,29.1667 88,27.5C 88.5691,31.3605 89.4024,31.3605 90.5,27.5C 95.8454,28.0743 101.179,27.5743 106.5,26C 115.358,25.2373 124.191,25.404 133,26.5C 139.111,24.1171 145.277,23.9504 151.5,26C 152.646,26.6449 153.646,27.4783 154.5,28.5C 156.518,27.1865 157.685,27.8532 158,30.5C 159.043,26.7741 159.543,27.1074 159.5,31.5C 160.833,31.5 162.167,31.5 163.5,31.5C 163.714,33.1439 163.38,34.6439 162.5,36C 163.061,37.676 164.061,39.0094 165.5,40C 165.167,40.3333 164.833,40.6667 164.5,41C 170.528,41.1697 176.528,41.6697 182.5,42.5C 177.437,42.4228 172.103,42.5894 166.5,43C 165.664,44.2433 165.997,45.4099 167.5,46.5C 168.736,47.2458 170.07,47.5792 171.5,47.5C 172.142,51.7709 174.475,54.7709 178.5,56.5C 177.41,57.6086 177.41,58.6086 178.5,59.5C 180.371,60.767 182.204,60.767 184,59.5C 186.454,60.1981 188.787,61.1981 191,62.5C 191.914,58.8149 192.581,59.1482 193,63.5C 197.726,66.3642 201.059,70.3642 203,75.5C 203.167,76.8333 203.333,78.1667 203.5,79.5C 201.117,85.1219 199.117,90.9552 197.5,97C 198.218,100.461 198.718,103.961 199,107.5C 199.692,108.025 200.192,108.692 200.5,109.5C 205.532,110.48 210.199,111.646 214.5,113C 218.428,116.688 220.928,121.188 222,126.5C 225.796,128.741 228.129,132.074 229,136.5C 229.436,142.374 230.769,148.04 233,153.5C 233.804,163.166 234.138,172.832 234,182.5C 232.718,188.113 229.551,192.28 224.5,195C 225.493,215.091 225.827,235.257 225.5,255.5 Z M 91.5,187.5 C 90.1667,187.5 88.8333,187.5 87.5,187.5C 87.1667,186.833 86.8333,186.167 86.5,185.5C 87.0431,185.44 87.3764,185.107 87.5,184.5C 86.3112,183.571 84.9778,183.238 83.5,183.5C 83.5,182.5 83.5,181.5 83.5,180.5C 82.448,180.649 81.448,180.483 80.5,180C 81.2931,176.589 81.7931,173.089 82,169.5C 85.4283,170.824 88.595,172.657 91.5,175C 86.2063,175.818 86.2063,176.318 91.5,176.5C 90.3252,180.15 90.3252,183.817 91.5,187.5 Z M 83.5,183.5 C 84.5,184.167 85.5,184.833 86.5,185.5C 84.8212,185.285 83.8212,185.952 83.5,187.5C 80.9781,185.998 80.9781,184.665 83.5,183.5 Z"/></g>
<g><path style="opacity:0.004" fill="#0a0501" d="M 79.5,31.5 C 80.5983,32.6009 80.765,33.9343 80,35.5C 79.51,34.2068 79.3433,32.8734 79.5,31.5 Z"/></g>
<g><path style="opacity:1" fill="#2f170f" d="M 140.5,28.5 C 147.388,28.8606 153.221,31.5273 158,36.5C 159.946,39.1388 160.946,42.1388 161,45.5C 166.14,51.7794 170.973,58.1128 175.5,64.5C 175.737,65.791 175.404,66.791 174.5,67.5C 171.731,64.2214 169.564,60.5548 168,56.5C 166.629,54.9586 165.129,53.6253 163.5,52.5C 162.219,49.5526 160.219,47.2193 157.5,45.5C 159.374,41.5297 158.374,38.5297 154.5,36.5C 149.612,31.5313 143.946,30.3646 137.5,33C 138.448,33.4828 139.448,33.6495 140.5,33.5C 140.5,33.8333 140.5,34.1667 140.5,34.5C 135.032,33.4258 129.532,32.4258 124,31.5C 122.293,31.5085 120.793,31.8418 119.5,32.5C 116.492,32.2991 113.492,31.9657 110.5,31.5C 105.505,32.827 100.505,33.827 95.5,34.5C 91.1281,37.9858 86.1281,40.4858 80.5,42C 76.5299,44.1314 73.8633,47.298 72.5,51.5C 69.6249,53.4871 66.9583,55.8205 64.5,58.5C 60.1543,56.5754 55.8209,56.2421 51.5,57.5C 47.0022,59.3347 44.3355,62.668 43.5,67.5C 42.596,68.209 42.2627,69.209 42.5,70.5C 41.2616,72.2143 40.595,74.2143 40.5,76.5C 39.9106,59.2678 48.2439,52.1011 65.5,55C 69.6424,49.6904 74.3091,44.8571 79.5,40.5C 81.4817,40.0046 83.4817,39.5046 85.5,39C 88.4835,36.1742 91.8168,33.8409 95.5,32C 104.998,31.1224 114.498,30.2891 124,29.5C 127.689,30.0379 131.356,30.7045 135,31.5C 137.215,31.1004 139.048,30.1004 140.5,28.5 Z"/></g>
<g><path style="opacity:0.998" fill="#886a54" d="M 154.5,36.5 C 154.5,38.1667 154.5,39.8333 154.5,41.5C 150.537,37.8444 145.87,35.1777 140.5,33.5C 139.448,33.6495 138.448,33.4828 137.5,33C 143.946,30.3646 149.612,31.5313 154.5,36.5 Z"/></g>
<g><path style="opacity:1" fill="#52392c" d="M 140.5,33.5 C 145.87,35.1777 150.537,37.8444 154.5,41.5C 154.5,39.8333 154.5,38.1667 154.5,36.5C 158.374,38.5297 159.374,41.5297 157.5,45.5C 152.569,44.0821 148.569,41.2487 145.5,37C 143.685,36.2432 142.019,35.4098 140.5,34.5C 140.5,34.1667 140.5,33.8333 140.5,33.5 Z"/></g>
<g><path style="opacity:0.004" fill="#0e0702" d="M 74.5,39.5 C 73.4017,38.3991 73.235,37.0657 74,35.5C 74.49,36.7932 74.6567,38.1266 74.5,39.5 Z"/></g>
<g><path style="opacity:1" fill="#90765e" d="M 119.5,32.5 C 122.88,34.3532 126.546,35.8532 130.5,37C 131.773,39.7579 133.44,40.0912 135.5,38C 134.552,37.5172 133.552,37.3505 132.5,37.5C 132.281,36.325 132.614,35.325 133.5,34.5C 136.618,36.3932 139.952,37.7265 143.5,38.5C 142.975,39.1924 142.308,39.6924 141.5,40C 144.886,41.0277 147.552,43.0277 149.5,46C 147.821,49.297 145.154,50.297 141.5,49C 138.927,47.4294 136.594,45.596 134.5,43.5C 133.554,43.9867 132.554,44.3201 131.5,44.5C 129.666,43.2455 127.666,42.5789 125.5,42.5C 125.778,40.6536 125.111,39.3202 123.5,38.5C 122.859,39.9935 121.859,40.9935 120.5,41.5C 119.589,38.0501 117.256,36.2168 113.5,36C 107.511,35.301 101.511,34.801 95.5,34.5C 100.505,33.827 105.505,32.827 110.5,31.5C 113.492,31.9657 116.492,32.2991 119.5,32.5 Z"/></g>
<g><path style="opacity:1" fill="#866b56" d="M 119.5,32.5 C 120.793,31.8418 122.293,31.5085 124,31.5C 129.532,32.4258 135.032,33.4258 140.5,34.5C 142.019,35.4098 143.685,36.2432 145.5,37C 148.569,41.2487 152.569,44.0821 157.5,45.5C 160.219,47.2193 162.219,49.5526 163.5,52.5C 163.665,55.5184 163.498,58.5184 163,61.5C 162.333,62.1667 161.667,62.8333 161,63.5C 156.639,60.3083 152.139,57.3083 147.5,54.5C 143.854,54.1497 140.854,52.483 138.5,49.5C 133.916,49.0188 129.583,47.8522 125.5,46C 122.527,45.8955 119.527,46.0621 116.5,46.5C 113.795,46.6839 111.462,46.0173 109.5,44.5C 111.617,43.227 113.784,43.227 116,44.5C 117.577,43.4485 119.077,42.4485 120.5,41.5C 121.859,40.9935 122.859,39.9935 123.5,38.5C 125.111,39.3202 125.778,40.6536 125.5,42.5C 127.666,42.5789 129.666,43.2455 131.5,44.5C 132.554,44.3201 133.554,43.9867 134.5,43.5C 136.594,45.596 138.927,47.4294 141.5,49C 145.154,50.297 147.821,49.297 149.5,46C 147.552,43.0277 144.886,41.0277 141.5,40C 142.308,39.6924 142.975,39.1924 143.5,38.5C 139.952,37.7265 136.618,36.3932 133.5,34.5C 132.614,35.325 132.281,36.325 132.5,37.5C 133.552,37.3505 134.552,37.5172 135.5,38C 133.44,40.0912 131.773,39.7579 130.5,37C 126.546,35.8532 122.88,34.3532 119.5,32.5 Z"/></g>
<g><path style="opacity:0.004" fill="#0e0702" d="M 179.5,47.5 C 180.598,48.6009 180.765,49.9343 180,51.5C 179.51,50.2068 179.343,48.8734 179.5,47.5 Z"/></g>
<g><path style="opacity:0.004" fill="#0a0501" d="M 182.5,47.5 C 183.598,48.6009 183.765,49.9343 183,51.5C 182.51,50.2068 182.343,48.8734 182.5,47.5 Z"/></g>
<g><path style="opacity:1" fill="#947d67" d="M 95.5,34.5 C 101.511,34.801 107.511,35.301 113.5,36C 117.256,36.2168 119.589,38.0501 120.5,41.5C 119.077,42.4485 117.577,43.4485 116,44.5C 113.784,43.227 111.617,43.227 109.5,44.5C 102.633,47.0275 95.9667,50.0275 89.5,53.5C 86.172,57.825 82.172,61.4917 77.5,64.5C 77.5,63.1667 77.5,61.8333 77.5,60.5C 79.3904,60.7035 80.8904,60.0368 82,58.5C 85.616,54.4179 85.2827,50.7513 81,47.5C 78.2145,49.0309 75.3812,50.3643 72.5,51.5C 73.8633,47.298 76.5299,44.1314 80.5,42C 86.1281,40.4858 91.1281,37.9858 95.5,34.5 Z"/></g>
<g><path style="opacity:0.998" fill="#764e3a" d="M 128.5,49.5 C 130.604,51.0987 132.604,52.932 134.5,55C 133.584,55.2784 132.918,55.7784 132.5,56.5C 128.375,53.6123 124.042,52.9456 119.5,54.5C 117.833,54.5 116.167,54.5 114.5,54.5C 111.994,53.2504 109.327,52.5838 106.5,52.5C 105.833,52.5 105.167,52.5 104.5,52.5C 102.946,53.9142 101.612,55.5808 100.5,57.5C 98.505,60.1681 95.8383,61.8347 92.5,62.5C 94.7701,60.551 96.7701,58.2177 98.5,55.5C 95.2553,54.5977 92.2553,55.2644 89.5,57.5C 89.7822,56.2223 90.4489,55.2223 91.5,54.5C 95.4136,53.76 98.7469,51.9266 101.5,49C 110.525,47.419 119.525,47.5856 128.5,49.5 Z"/></g>
<g><path style="opacity:1" fill="#956750" d="M 92.5,62.5 C 90.2254,63.1112 88.5588,64.4446 87.5,66.5C 87.6309,65.6236 87.2975,64.9569 86.5,64.5C 85.4728,65.7914 84.4728,65.7914 83.5,64.5C 83.5,64.1667 83.5,63.8333 83.5,63.5C 85.0615,61.0268 87.0615,59.0268 89.5,57.5C 92.2553,55.2644 95.2553,54.5977 98.5,55.5C 96.7701,58.2177 94.7701,60.551 92.5,62.5 Z"/></g>
<g><path style="opacity:1" fill="#c3935e" d="M 114.5,54.5 C 116.167,54.5 117.833,54.5 119.5,54.5C 120.415,56.7541 121.748,58.7541 123.5,60.5C 119.975,59.2411 116.975,57.2411 114.5,54.5 Z"/></g>
<g><path style="opacity:1" fill="#efc388" d="M 132.5,56.5 C 135.147,56.9287 137.147,58.2621 138.5,60.5C 138.859,62.371 139.859,63.871 141.5,65C 140.756,66.0386 139.756,66.5386 138.5,66.5C 133.812,63.7597 128.812,61.7597 123.5,60.5C 121.748,58.7541 120.415,56.7541 119.5,54.5C 124.042,52.9456 128.375,53.6123 132.5,56.5 Z"/></g>
<g><path style="opacity:1" fill="#97672e" d="M 106.5,52.5 C 109.327,52.5838 111.994,53.2504 114.5,54.5C 116.975,57.2411 119.975,59.2411 123.5,60.5C 128.812,61.7597 133.812,63.7597 138.5,66.5C 141.095,70.4083 144.762,72.0749 149.5,71.5C 152.775,72.871 155.775,74.7043 158.5,77C 158.302,79.1845 157.302,80.6845 155.5,81.5C 156.752,79.6612 156.752,77.8278 155.5,76C 147.819,75.0914 141.152,72.0914 135.5,67C 133.257,65.8638 130.924,65.0305 128.5,64.5C 120.597,61.5485 113.264,57.5485 106.5,52.5 Z"/></g>
<g><path style="opacity:1" fill="#998672" d="M 51.5,57.5 C 54.0795,58.2276 56.7462,58.7276 59.5,59C 60.428,59.3879 61.0946,60.0546 61.5,61C 58.1262,66.244 55.1262,71.744 52.5,77.5C 51.9984,78.521 51.3317,78.6877 50.5,78C 46.6994,75.3859 44.366,71.8859 43.5,67.5C 44.3355,62.668 47.0022,59.3347 51.5,57.5 Z"/></g>
<g><path style="opacity:0.004" fill="#0b0501" d="M 194.5,59.5 C 195.598,60.6009 195.765,61.9343 195,63.5C 194.51,62.2068 194.343,60.8734 194.5,59.5 Z"/></g>
<g><path style="opacity:1" fill="#aa9984" d="M 77.5,64.5 C 75.1862,66.4773 72.8528,68.4773 70.5,70.5C 69.8826,70.3893 69.3826,70.056 69,69.5C 64.3582,76.5981 62.1915,84.4314 62.5,93C 64.5117,94.1516 64.6783,95.3183 63,96.5C 62.5017,99.8168 62.335,103.15 62.5,106.5C 61.2101,105.942 60.3768,104.942 60,103.5C 59.9507,98.9364 59.1173,94.603 57.5,90.5C 58.0096,88.9121 59.0096,87.7455 60.5,87C 58.8,84.729 57.4666,82.229 56.5,79.5C 57.8716,76.6683 58.8716,73.6683 59.5,70.5C 60.6283,69.7379 61.7949,69.0712 63,68.5C 63.4966,66.1902 63.6633,63.8568 63.5,61.5C 63.5569,60.391 63.8902,59.391 64.5,58.5C 66.9583,55.8205 69.6249,53.4871 72.5,51.5C 75.3812,50.3643 78.2145,49.0309 81,47.5C 85.2827,50.7513 85.616,54.4179 82,58.5C 80.8904,60.0368 79.3904,60.7035 77.5,60.5C 77.5,61.8333 77.5,63.1667 77.5,64.5 Z"/></g>
<g><path style="opacity:1" fill="#d0ab78" d="M 100.5,57.5 C 101.638,60.3035 101.805,63.3035 101,66.5C 100.617,67.056 100.117,67.3893 99.5,67.5C 100.434,65.7615 100.434,64.0948 99.5,62.5C 95.7357,62.9717 92.4024,64.305 89.5,66.5C 90.5,65.1667 91.5,63.8333 92.5,62.5C 95.8383,61.8347 98.505,60.1681 100.5,57.5 Z"/></g>
<g><path style="opacity:1" fill="#643d2a" d="M 89.5,53.5 C 89.8417,54.3382 90.5084,54.6716 91.5,54.5C 90.4489,55.2223 89.7822,56.2223 89.5,57.5C 87.0615,59.0268 85.0615,61.0268 83.5,63.5C 82.5041,63.4142 81.6708,63.7476 81,64.5C 79.5787,67.0094 77.9121,69.3428 76,71.5C 75.6116,75.2192 74.9449,78.8859 74,82.5C 73.51,81.2068 73.3433,79.8734 73.5,78.5C 74.773,76.3827 74.773,74.216 73.5,72C 75.5233,69.8251 76.8566,67.3251 77.5,64.5C 82.172,61.4917 86.172,57.825 89.5,53.5 Z"/></g>
<g><path style="opacity:1" fill="#b97d4d" d="M 138.5,60.5 C 144.523,61.8562 148.19,65.5229 149.5,71.5C 144.762,72.0749 141.095,70.4083 138.5,66.5C 139.756,66.5386 140.756,66.0386 141.5,65C 139.859,63.871 138.859,62.371 138.5,60.5 Z"/></g>
<g><path style="opacity:1" fill="#462111" d="M 192.5,87.5 C 191.833,87.5 191.167,87.5 190.5,87.5C 194.991,85.1848 196.824,81.5182 196,76.5C 195.617,75.944 195.117,75.6107 194.5,75.5C 190.373,69.0964 184.373,65.763 176.5,65.5C 176.5,66.8333 176.5,68.1667 176.5,69.5C 175.5,69.1667 174.833,68.5 174.5,67.5C 175.404,66.791 175.737,65.791 175.5,64.5C 183.685,63.3303 190.519,65.997 196,72.5C 200.189,78.7795 199.022,83.7795 192.5,87.5 Z"/></g>
<g><path style="opacity:1" fill="#a57741" d="M 92.5,62.5 C 91.5,63.8333 90.5,65.1667 89.5,66.5C 87.4362,68.4918 86.1029,70.8252 85.5,73.5C 85.1658,70.812 85.8325,68.4786 87.5,66.5C 88.5588,64.4446 90.2254,63.1112 92.5,62.5 Z"/></g>
<g><path style="opacity:1" fill="#f7daad" d="M 99.5,67.5 C 98.5423,68.9616 97.3756,70.2949 96,71.5C 95.7457,78.0663 93.579,83.733 89.5,88.5C 87.9878,90.3167 85.9878,91.3167 83.5,91.5C 82.8333,87.8333 82.1667,84.1667 81.5,80.5C 82.8333,78.1667 84.1667,75.8333 85.5,73.5C 86.1029,70.8252 87.4362,68.4918 89.5,66.5C 92.4024,64.305 95.7357,62.9717 99.5,62.5C 100.434,64.0948 100.434,65.7615 99.5,67.5 Z"/></g>
<g><path style="opacity:1" fill="#d3b58d" d="M 128.5,64.5 C 130.924,65.0305 133.257,65.8638 135.5,67C 141.152,72.0914 147.819,75.0914 155.5,76C 156.752,77.8278 156.752,79.6612 155.5,81.5C 153.203,83.2941 151.037,85.2941 149,87.5C 148.054,91.8075 146.554,95.8075 144.5,99.5C 145.225,88.8408 142.058,79.5075 135,71.5C 133.155,68.817 130.655,67.1503 127.5,66.5C 127.863,65.8165 128.196,65.1499 128.5,64.5 Z"/></g>
<g><path style="opacity:1" fill="#715a4a" d="M 163.5,52.5 C 165.129,53.6253 166.629,54.9586 168,56.5C 169.564,60.5548 171.731,64.2214 174.5,67.5C 174.833,68.5 175.5,69.1667 176.5,69.5C 176.5,70.8333 176.5,72.1667 176.5,73.5C 177.056,83.1866 177.223,92.8533 177,102.5C 175.855,107.083 175.189,111.749 175,116.5C 174.34,118.324 173.173,119.657 171.5,120.5C 172.468,117.555 172.634,114.555 172,111.5C 172.379,115.122 170.879,117.289 167.5,118C 166.376,121.422 164.209,123.922 161,125.5C 160.133,128.521 160.633,131.188 162.5,133.5C 160.33,134.838 158.664,136.672 157.5,139C 153.843,139.837 150.843,141.67 148.5,144.5C 149.15,142.565 149.483,140.565 149.5,138.5C 151.415,138.784 153.081,138.451 154.5,137.5C 161.837,131.567 161.171,126.9 152.5,123.5C 150.927,123.752 149.594,124.418 148.5,125.5C 147.833,125.167 147.167,124.833 146.5,124.5C 147.574,121.932 149.574,120.265 152.5,119.5C 156.19,114.119 159.357,108.452 162,102.5C 162.049,97.9364 162.883,93.603 164.5,89.5C 163.328,85.6824 163.328,81.849 164.5,78C 164.333,76.8333 164.167,75.6667 164,74.5C 160.323,72.1431 158.489,68.8098 158.5,64.5C 154.44,63.9446 151.273,61.9446 149,58.5C 148.209,57.255 147.709,55.9217 147.5,54.5C 152.139,57.3083 156.639,60.3083 161,63.5C 161.667,62.8333 162.333,62.1667 163,61.5C 163.498,58.5184 163.665,55.5184 163.5,52.5 Z"/></g>
<g><path style="opacity:1" fill="#492a1e" d="M 109.5,44.5 C 111.462,46.0173 113.795,46.6839 116.5,46.5C 119.527,46.0621 122.527,45.8955 125.5,46C 129.583,47.8522 133.916,49.0188 138.5,49.5C 140.854,52.483 143.854,54.1497 147.5,54.5C 147.709,55.9217 148.209,57.255 149,58.5C 151.273,61.9446 154.44,63.9446 158.5,64.5C 158.489,68.8098 160.323,72.1431 164,74.5C 164.167,75.6667 164.333,76.8333 164.5,78C 163.328,81.849 163.328,85.6824 164.5,89.5C 162.883,93.603 162.049,97.9364 162,102.5C 159.357,108.452 156.19,114.119 152.5,119.5C 149.574,120.265 147.574,121.932 146.5,124.5C 145.21,125.058 144.377,126.058 144,127.5C 143.667,129.833 143.333,132.167 143,134.5C 140.372,135.277 137.872,136.277 135.5,137.5C 135.573,135.973 134.906,134.973 133.5,134.5C 128.782,131.069 123.782,130.736 118.5,133.5C 117.264,132.754 115.93,132.421 114.5,132.5C 112.486,132.608 110.82,131.942 109.5,130.5C 107.833,129.833 106.167,129.167 104.5,128.5C 104.833,128.5 105.167,128.5 105.5,128.5C 108.983,128.691 112.316,129.357 115.5,130.5C 116.097,131.139 116.93,131.472 118,131.5C 121.336,130.027 124.836,129.36 128.5,129.5C 131.42,130.878 134.254,132.545 137,134.5C 138.11,132.963 139.61,132.297 141.5,132.5C 142.396,125.926 145.73,120.926 151.5,117.5C 152.423,115.076 153.923,113.076 156,111.5C 155.612,107.079 157.279,103.745 161,101.5C 162.261,94.0219 162.761,86.3552 162.5,78.5C 160.708,74.2585 158.375,70.2585 155.5,66.5C 149.287,61.1141 142.954,55.9474 136.5,51C 133.883,50.1785 131.216,49.6785 128.5,49.5C 119.525,47.5856 110.525,47.419 101.5,49C 98.7469,51.9266 95.4136,53.76 91.5,54.5C 90.5084,54.6716 89.8417,54.3382 89.5,53.5C 95.9667,50.0275 102.633,47.0275 109.5,44.5 Z"/></g>
<g><path style="opacity:1" fill="#6e5a4a" d="M 51.5,57.5 C 55.8209,56.2421 60.1543,56.5754 64.5,58.5C 63.8902,59.391 63.5569,60.391 63.5,61.5C 60.5616,65.9751 57.7282,70.6417 55,75.5C 54.5065,77.1341 54.3398,78.8008 54.5,80.5C 53.8826,80.3893 53.3826,80.056 53,79.5C 51.8348,81.9879 50.3348,83.8212 48.5,85C 43.8696,81.3668 41.8696,76.5335 42.5,70.5C 42.2627,69.209 42.596,68.209 43.5,67.5C 44.366,71.8859 46.6994,75.3859 50.5,78C 51.3317,78.6877 51.9984,78.521 52.5,77.5C 55.1262,71.744 58.1262,66.244 61.5,61C 61.0946,60.0546 60.428,59.3879 59.5,59C 56.7462,58.7276 54.0795,58.2276 51.5,57.5 Z"/></g>
<g><path style="opacity:1" fill="#8c4f2f" d="M 194.5,75.5 C 194.468,80.8716 191.802,84.2049 186.5,85.5C 185.193,84.8466 183.86,84.1799 182.5,83.5C 180.813,79.8503 178.813,76.5169 176.5,73.5C 176.5,72.1667 176.5,70.8333 176.5,69.5C 176.5,68.1667 176.5,66.8333 176.5,65.5C 184.373,65.763 190.373,69.0964 194.5,75.5 Z"/></g>
<g><path style="opacity:1" fill="#9f876b" d="M 77.5,64.5 C 76.8566,67.3251 75.5233,69.8251 73.5,72C 74.773,74.216 74.773,76.3827 73.5,78.5C 72.8333,80.1667 72.1667,81.8333 71.5,83.5C 71.7076,81.0799 71.3742,78.7466 70.5,76.5C 71.1667,75.1667 71.8333,73.8333 72.5,72.5C 72.1445,71.4777 71.4778,70.811 70.5,70.5C 72.8528,68.4773 75.1862,66.4773 77.5,64.5 Z"/></g>
<g><path style="opacity:1" fill="#623721" d="M 194.5,75.5 C 195.117,75.6107 195.617,75.944 196,76.5C 196.824,81.5182 194.991,85.1848 190.5,87.5C 188.847,87.3404 187.514,86.6737 186.5,85.5C 191.802,84.2049 194.468,80.8716 194.5,75.5 Z"/></g>
<g><path style="opacity:1" fill="#e6d3b2" d="M 103.5,62.5 C 107.454,64.2114 111.288,66.2114 115,68.5C 117.355,68.6001 119.522,69.7668 121.5,72C 123.5,72.6667 125.5,73.3333 127.5,74C 128.738,74.69 128.738,75.19 127.5,75.5C 115.931,72.7822 109.264,77.2822 107.5,89C 107.306,95.4832 110.306,99.8166 116.5,102C 119.482,102.498 122.482,102.665 125.5,102.5C 124.616,103.457 122.95,104.291 120.5,105C 119.426,108.159 117.426,110.493 114.5,112C 116.087,112.862 117.754,113.529 119.5,114C 118.906,114.464 118.239,114.631 117.5,114.5C 111.522,114.507 106.189,112.673 101.5,109C 94.9191,108.813 88.4191,108.313 82,107.5C 81.3333,105.833 81.3333,104.167 82,102.5C 86,97.1667 90,91.8333 94,86.5C 95.125,79.2511 98.125,72.9177 103,67.5C 103.494,65.8659 103.66,64.1992 103.5,62.5 Z"/></g>
<g><path style="opacity:1" fill="#dbc29d" d="M 104.5,52.5 C 105.167,52.5 105.833,52.5 106.5,52.5C 113.264,57.5485 120.597,61.5485 128.5,64.5C 128.196,65.1499 127.863,65.8165 127.5,66.5C 130.655,67.1503 133.155,68.817 135,71.5C 142.058,79.5075 145.225,88.8408 144.5,99.5C 143.872,102.09 142.705,104.423 141,106.5C 140.505,108.473 140.338,110.473 140.5,112.5C 139.566,113.568 139.232,114.901 139.5,116.5C 140.225,120.367 138.892,123.034 135.5,124.5C 131.153,122.647 127.486,119.814 124.5,116C 121.964,115.814 119.631,115.314 117.5,114.5C 118.239,114.631 118.906,114.464 119.5,114C 117.754,113.529 116.087,112.862 114.5,112C 117.426,110.493 119.426,108.159 120.5,105C 122.95,104.291 124.616,103.457 125.5,102.5C 134.641,98.273 137.475,91.273 134,81.5C 132.506,78.6865 130.34,76.6865 127.5,75.5C 128.738,75.19 128.738,74.69 127.5,74C 125.5,73.3333 123.5,72.6667 121.5,72C 119.522,69.7668 117.355,68.6001 115,68.5C 111.288,66.2114 107.454,64.2114 103.5,62.5C 103.253,59.0613 103.586,55.728 104.5,52.5 Z"/></g>
<g><path style="opacity:1" fill="#764a35" d="M 83.5,63.5 C 83.5,63.8333 83.5,64.1667 83.5,64.5C 81.9833,67.5347 79.8167,70.2013 77,72.5C 76.5645,78.2652 75.7312,83.9318 74.5,89.5C 74.7875,95.5911 75.6208,101.591 77,107.5C 82.5016,110.831 86.3349,115.498 88.5,121.5C 94.0575,123.458 99.3908,125.792 104.5,128.5C 106.167,129.167 107.833,129.833 109.5,130.5C 107.409,130.318 105.409,130.652 103.5,131.5C 101.684,130.185 100.017,128.685 98.5,127C 94.7015,126.04 91.0349,124.706 87.5,123C 85.8183,120.31 84.3183,117.477 83,114.5C 80.9302,112.213 78.4302,110.547 75.5,109.5C 73.1829,102.776 72.0162,95.776 72,88.5C 70.3721,87.0383 70.2054,85.3717 71.5,83.5C 72.1667,81.8333 72.8333,80.1667 73.5,78.5C 73.3433,79.8734 73.51,81.2068 74,82.5C 74.9449,78.8859 75.6116,75.2192 76,71.5C 77.9121,69.3428 79.5787,67.0094 81,64.5C 81.6708,63.7476 82.5041,63.4142 83.5,63.5 Z"/></g>
<g><path style="opacity:1" fill="#5a3626" d="M 128.5,49.5 C 131.216,49.6785 133.883,50.1785 136.5,51C 142.954,55.9474 149.287,61.1141 155.5,66.5C 158.375,70.2585 160.708,74.2585 162.5,78.5C 162.761,86.3552 162.261,94.0219 161,101.5C 157.279,103.745 155.612,107.079 156,111.5C 153.923,113.076 152.423,115.076 151.5,117.5C 145.73,120.926 142.396,125.926 141.5,132.5C 139.61,132.297 138.11,132.963 137,134.5C 134.254,132.545 131.42,130.878 128.5,129.5C 129.239,129.631 129.906,129.464 130.5,129C 131.085,127.698 131.751,126.531 132.5,125.5C 138.11,126.559 141.11,124.226 141.5,118.5C 143.679,118.16 145.512,117.16 147,115.5C 148.593,111.91 150.593,108.577 153,105.5C 152.975,100.195 154.142,95.1954 156.5,90.5C 155.777,88.2178 155.443,85.8845 155.5,83.5C 155.5,82.8333 155.5,82.1667 155.5,81.5C 157.302,80.6845 158.302,79.1845 158.5,77C 155.775,74.7043 152.775,72.871 149.5,71.5C 148.19,65.5229 144.523,61.8562 138.5,60.5C 137.147,58.2621 135.147,56.9287 132.5,56.5C 132.918,55.7784 133.584,55.2784 134.5,55C 132.604,52.932 130.604,51.0987 128.5,49.5 Z"/></g>
<g><path style="opacity:1" fill="#94632e" d="M 155.5,81.5 C 155.5,82.1667 155.5,82.8333 155.5,83.5C 153.45,85.2368 151.617,87.2368 150,89.5C 149.517,90.448 149.351,91.448 149.5,92.5C 149.605,96.2583 148.605,99.5917 146.5,102.5C 143.059,106.06 141.226,110.393 141,115.5C 140.517,114.552 140.351,113.552 140.5,112.5C 140.338,110.473 140.505,108.473 141,106.5C 142.705,104.423 143.872,102.09 144.5,99.5C 146.554,95.8075 148.054,91.8075 149,87.5C 151.037,85.2941 153.203,83.2941 155.5,81.5 Z"/></g>
<g><path style="opacity:1" fill="#bbab95" d="M 70.5,70.5 C 71.4778,70.811 72.1445,71.4777 72.5,72.5C 71.8333,73.8333 71.1667,75.1667 70.5,76.5C 71.3742,78.7466 71.7076,81.0799 71.5,83.5C 70.2054,85.3717 70.3721,87.0383 72,88.5C 72.0162,95.776 73.1829,102.776 75.5,109.5C 78.4302,110.547 80.9302,112.213 83,114.5C 84.3183,117.477 85.8183,120.31 87.5,123C 91.0349,124.706 94.7015,126.04 98.5,127C 100.017,128.685 101.684,130.185 103.5,131.5C 105.409,130.652 107.409,130.318 109.5,130.5C 110.82,131.942 112.486,132.608 114.5,132.5C 114.833,133.5 115.5,134.167 116.5,134.5C 116.559,136.765 115.726,137.098 114,135.5C 109.283,136.65 104.616,137.984 100,139.5C 94.0367,137.012 88.0367,134.679 82,132.5C 81.6667,132.833 81.3333,133.167 81,133.5C 78.5835,131.922 76.7502,129.922 75.5,127.5C 72.1533,126.131 68.9866,124.131 66,121.5C 65.4661,116.262 64.2994,111.262 62.5,106.5C 62.335,103.15 62.5017,99.8168 63,96.5C 64.6783,95.3183 64.5117,94.1516 62.5,93C 62.1915,84.4314 64.3582,76.5981 69,69.5C 69.3826,70.056 69.8826,70.3893 70.5,70.5 Z"/></g>
<g><path style="opacity:1" fill="#ad7f3e" d="M 127.5,75.5 C 130.34,76.6865 132.506,78.6865 134,81.5C 137.475,91.273 134.641,98.273 125.5,102.5C 122.482,102.665 119.482,102.498 116.5,102C 110.306,99.8166 107.306,95.4832 107.5,89C 109.264,77.2822 115.931,72.7822 127.5,75.5 Z"/></g>
<g><path style="opacity:1" fill="#f9dcb0" d="M 127.5,99.5 C 125.874,99.9383 124.207,100.272 122.5,100.5C 119.256,99.3823 115.923,98.5489 112.5,98C 110.859,96.871 109.859,95.371 109.5,93.5C 109.241,81.2423 114.908,76.7423 126.5,80C 131.849,83.0185 133.516,87.5185 131.5,93.5C 129.863,95.2889 128.53,97.2889 127.5,99.5 Z"/></g>
<g><path style="opacity:1" fill="#d8ad72" d="M 127.5,99.5 C 128.53,97.2889 129.863,95.2889 131.5,93.5C 133.516,87.5185 131.849,83.0185 126.5,80C 114.908,76.7423 109.241,81.2423 109.5,93.5C 107.218,86.2059 109.551,80.7059 116.5,77C 129.887,75.3869 135.387,81.2202 133,94.5C 131.945,97.0559 130.112,98.7225 127.5,99.5 Z"/></g>
<g><path style="opacity:1" fill="#f0c389" d="M 146.5,102.5 C 148.605,99.5917 149.605,96.2583 149.5,92.5C 150.151,91.9094 150.818,91.2427 151.5,90.5C 152.493,93.2382 152.159,95.9049 150.5,98.5C 150.931,99.2935 151.265,100.127 151.5,101C 149.314,104.669 146.981,108.169 144.5,111.5C 144.167,111.167 143.833,110.833 143.5,110.5C 145.494,108.184 146.494,105.518 146.5,102.5 Z"/></g>
<g><path style="opacity:1" fill="#ac7758" d="M 83.5,64.5 C 84.4728,65.7914 85.4728,65.7914 86.5,64.5C 87.2975,64.9569 87.6309,65.6236 87.5,66.5C 85.8325,68.4786 85.1658,70.812 85.5,73.5C 84.1667,75.8333 82.8333,78.1667 81.5,80.5C 81.1667,80.5 80.8333,80.5 80.5,80.5C 79.3026,89.6925 79.4693,99.0258 81,108.5C 83.0871,109.397 85.2537,110.064 87.5,110.5C 88.6936,114.363 91.027,117.363 94.5,119.5C 94.4142,120.496 94.7476,121.329 95.5,122C 97.9739,122.113 99.9739,123.113 101.5,125C 104.371,125.118 107.038,125.784 109.5,127C 107.942,127.21 106.609,127.71 105.5,128.5C 105.167,128.5 104.833,128.5 104.5,128.5C 99.3908,125.792 94.0575,123.458 88.5,121.5C 86.3349,115.498 82.5016,110.831 77,107.5C 75.6208,101.591 74.7875,95.5911 74.5,89.5C 75.7312,83.9318 76.5645,78.2652 77,72.5C 79.8167,70.2013 81.9833,67.5347 83.5,64.5 Z"/></g>
<g><path style="opacity:1" fill="#634233" d="M 54.5,83.5 C 55.4731,85.9479 55.8064,88.6146 55.5,91.5C 54.2132,92.8714 53.5465,94.7047 53.5,97C 53.6667,98.8333 53.8333,100.667 54,102.5C 55.5004,106.07 57.0004,109.57 58.5,113C 56.4057,113.445 54.9057,112.612 54,110.5C 50.6202,103.887 49.2869,96.8875 50,89.5C 51.0409,86.3863 52.5409,84.3863 54.5,83.5 Z"/></g>
<g><path style="opacity:1" fill="#c38550" d="M 155.5,83.5 C 155.443,85.8845 155.777,88.2178 156.5,90.5C 154.142,95.1954 152.975,100.195 153,105.5C 150.593,108.577 148.593,111.91 147,115.5C 145.512,117.16 143.679,118.16 141.5,118.5C 140.833,117.833 140.167,117.167 139.5,116.5C 139.232,114.901 139.566,113.568 140.5,112.5C 140.351,113.552 140.517,114.552 141,115.5C 141.226,110.393 143.059,106.06 146.5,102.5C 146.494,105.518 145.494,108.184 143.5,110.5C 143.833,110.833 144.167,111.167 144.5,111.5C 146.981,108.169 149.314,104.669 151.5,101C 151.265,100.127 150.931,99.2935 150.5,98.5C 152.159,95.9049 152.493,93.2382 151.5,90.5C 150.818,91.2427 150.151,91.9094 149.5,92.5C 149.351,91.448 149.517,90.448 150,89.5C 151.617,87.2368 153.45,85.2368 155.5,83.5 Z"/></g>
<g><path style="opacity:1" fill="#b3833d" d="M 104.5,52.5 C 103.586,55.728 103.253,59.0613 103.5,62.5C 103.66,64.1992 103.494,65.8659 103,67.5C 98.125,72.9177 95.125,79.2511 94,86.5C 90,91.8333 86,97.1667 82,102.5C 81.3333,104.167 81.3333,105.833 82,107.5C 88.4191,108.313 94.9191,108.813 101.5,109C 106.189,112.673 111.522,114.507 117.5,114.5C 119.631,115.314 121.964,115.814 124.5,116C 127.486,119.814 131.153,122.647 135.5,124.5C 138.892,123.034 140.225,120.367 139.5,116.5C 140.167,117.167 140.833,117.833 141.5,118.5C 141.11,124.226 138.11,126.559 132.5,125.5C 130.751,124.015 128.751,123.015 126.5,122.5C 128.842,122.225 128.842,121.392 126.5,120C 124.559,118.097 122.226,117.264 119.5,117.5C 112.706,116.748 106.373,114.748 100.5,111.5C 100.389,110.883 100.056,110.383 99.5,110C 95.4126,109.238 91.4126,109.404 87.5,110.5C 85.2537,110.064 83.0871,109.397 81,108.5C 79.4693,99.0258 79.3026,89.6925 80.5,80.5C 80.0446,87.0139 80.5446,93.3473 82,99.5C 85.1377,96.2084 87.6377,92.5418 89.5,88.5C 93.579,83.733 95.7457,78.0663 96,71.5C 97.3756,70.2949 98.5423,68.9616 99.5,67.5C 100.117,67.3893 100.617,67.056 101,66.5C 101.805,63.3035 101.638,60.3035 100.5,57.5C 101.612,55.5808 102.946,53.9142 104.5,52.5 Z"/></g>
<g><path style="opacity:1" fill="#deb979" d="M 80.5,80.5 C 80.8333,80.5 81.1667,80.5 81.5,80.5C 82.1667,84.1667 82.8333,87.8333 83.5,91.5C 85.9878,91.3167 87.9878,90.3167 89.5,88.5C 87.6377,92.5418 85.1377,96.2084 82,99.5C 80.5446,93.3473 80.0446,87.0139 80.5,80.5 Z"/></g>
<g><path style="opacity:1" fill="#866e5d" d="M 161.5,106.5 C 164.394,106.556 167.061,107.39 169.5,109C 170.576,110.726 170.743,112.559 170,114.5C 167.343,115.745 165.51,117.745 164.5,120.5C 162.473,122.339 160.14,122.839 157.5,122C 156.919,121.107 156.585,120.107 156.5,119C 158.321,114.826 159.987,110.659 161.5,106.5 Z"/></g>
<g><path style="opacity:1" fill="#deb676" d="M 100.5,111.5 C 97.7508,111.274 95.0841,111.607 92.5,112.5C 91.269,113.651 91.269,114.817 92.5,116C 99.401,117.013 106.068,118.846 112.5,121.5C 113.263,122.268 114.263,122.768 115.5,123C 114.207,123.49 112.873,123.657 111.5,123.5C 110.391,123.443 109.391,123.11 108.5,122.5C 103.989,121.179 99.3224,120.179 94.5,119.5C 91.027,117.363 88.6936,114.363 87.5,110.5C 91.4126,109.404 95.4126,109.238 99.5,110C 100.056,110.383 100.389,110.883 100.5,111.5 Z"/></g>
<g><path style="opacity:1" fill="#2b150c" d="M 176.5,73.5 C 178.813,76.5169 180.813,79.8503 182.5,83.5C 183.86,84.1799 185.193,84.8466 186.5,85.5C 187.514,86.6737 188.847,87.3404 190.5,87.5C 191.167,87.5 191.833,87.5 192.5,87.5C 193.459,93.3356 193.459,99.3356 192.5,105.5C 192.628,107.955 193.628,109.955 195.5,111.5C 193.52,112.368 191.853,111.701 190.5,109.5C 188.209,114.71 185.543,119.71 182.5,124.5C 183.2,124.787 183.867,125.12 184.5,125.5C 180.994,130.365 180.66,135.365 183.5,140.5C 183.989,143.324 185.656,144.657 188.5,144.5C 187.996,148.481 189.329,151.481 192.5,153.5C 193.167,153.5 193.5,153.833 193.5,154.5C 192.883,154.611 192.383,154.944 192,155.5C 191.503,158.146 191.336,160.813 191.5,163.5C 192.5,163.5 193.5,163.5 194.5,163.5C 194.5,163.833 194.5,164.167 194.5,164.5C 190.952,165.13 187.619,166.13 184.5,167.5C 182.486,167.392 180.82,168.058 179.5,169.5C 175.706,168.761 175.539,167.427 179,165.5C 179.49,164.207 179.657,162.873 179.5,161.5C 177.436,150.217 171.436,147.55 161.5,153.5C 151.619,159.406 140.952,163.239 129.5,165C 128.619,165.708 127.953,166.542 127.5,167.5C 127.167,167.5 126.833,167.5 126.5,167.5C 119.027,167.139 111.694,167.972 104.5,170C 105.044,170.717 105.711,171.217 106.5,171.5C 107.167,172.167 107.833,172.833 108.5,173.5C 102.814,171.986 99.1478,174.153 97.5,180C 98.3956,187.393 102.396,191.559 109.5,192.5C 109.5,193.167 109.5,193.833 109.5,194.5C 107.473,194.662 105.473,194.495 103.5,194C 98.3263,189.169 95.8263,183.336 96,176.5C 98.0176,174.65 99.8509,172.65 101.5,170.5C 92.0179,167.759 83.3512,163.426 75.5,157.5C 73.4527,159.015 71.1193,159.849 68.5,160C 74.6671,163.473 77.1671,168.64 76,175.5C 75.7216,176.416 75.2216,177.082 74.5,177.5C 76.334,170.327 74.0006,165.327 67.5,162.5C 67.5,161.833 67.1667,161.5 66.5,161.5C 65.5084,161.672 64.8417,161.338 64.5,160.5C 67.1554,156.916 66.4887,153.75 62.5,151C 53.3594,145.725 48.3594,148.225 47.5,158.5C 47.6641,155.813 47.4974,153.146 47,150.5C 43.3683,147.87 40.035,144.87 37,141.5C 35.7475,138.986 35.2475,136.32 35.5,133.5C 37.6006,138.663 40.934,142.996 45.5,146.5C 47.2251,145.985 48.8917,145.318 50.5,144.5C 49.0541,142.382 48.3874,140.049 48.5,137.5C 49.0439,133.534 50.3772,129.867 52.5,126.5C 53.1667,126.5 53.5,126.833 53.5,127.5C 51.9402,129.954 50.9402,132.62 50.5,135.5C 49.0896,138.771 49.7562,141.771 52.5,144.5C 53.1924,143.975 53.6924,143.308 54,142.5C 57.0219,145.601 60.5219,148.101 64.5,150C 66.8257,151.805 68.4923,153.972 69.5,156.5C 73.0678,157.384 75.7345,156.051 77.5,152.5C 78.7736,153.189 78.7736,154.023 77.5,155C 78.0944,155.464 78.7611,155.631 79.5,155.5C 90.8343,167.776 104.501,170.943 120.5,165C 118.602,161.638 119.268,161.638 122.5,165C 124.728,165.82 126.728,165.487 128.5,164C 125.734,162.629 123.401,160.796 121.5,158.5C 119.114,157.627 117.114,156.127 115.5,154C 111.353,155.266 107.687,154.266 104.5,151C 100.452,150.696 96.4517,150.196 92.5,149.5C 91.6851,148.163 90.5185,147.163 89,146.5C 88.3083,145.563 88.475,144.897 89.5,144.5C 91.5274,146.18 93.8608,147.347 96.5,148C 112.439,151.093 128.439,150.759 144.5,147C 146.32,146.8 147.653,145.966 148.5,144.5C 150.843,141.67 153.843,139.837 157.5,139C 158.664,136.672 160.33,134.838 162.5,133.5C 164.669,131.66 166.002,129.326 166.5,126.5C 170.009,126.192 171.676,124.192 171.5,120.5C 173.173,119.657 174.34,118.324 175,116.5C 175.189,111.749 175.855,107.083 177,102.5C 177.223,92.8533 177.056,83.1866 176.5,73.5 Z"/></g>
<g><path style="opacity:1" fill="#42271e" d="M 180.5,92.5 C 181.966,93.347 182.8,94.6803 183,96.5C 184.767,112.331 181.434,126.998 173,140.5C 172.586,140.043 172.086,139.709 171.5,139.5C 171.142,142.876 169.642,145.542 167,147.5C 167.173,141.119 168.007,134.786 169.5,128.5C 170.72,127.289 171.887,127.289 173,128.5C 172.792,124.209 174.125,120.542 177,117.5C 177.368,112.696 178.368,108.03 180,103.5C 180.499,99.8484 180.665,96.1817 180.5,92.5 Z"/></g>
<g><path style="opacity:1" fill="#3b2219" d="M 184.5,91.5 C 187.407,92.7341 189.741,94.7341 191.5,97.5C 190.5,97.5 189.5,97.5 188.5,97.5C 189.5,98.8333 190.5,100.167 191.5,101.5C 190.224,106.054 188.391,110.387 186,114.5C 185.205,107.782 185.372,101.116 186.5,94.5C 185.388,93.7348 184.721,92.7348 184.5,91.5 Z"/></g>
<g><path style="opacity:1" fill="#f9dcb0" d="M 100.5,111.5 C 106.373,114.748 112.706,116.748 119.5,117.5C 119.5,118.5 119.5,119.5 119.5,120.5C 117.139,120.674 114.806,121.007 112.5,121.5C 106.068,118.846 99.401,117.013 92.5,116C 91.269,114.817 91.269,113.651 92.5,112.5C 95.0841,111.607 97.7508,111.274 100.5,111.5 Z"/></g>
<g><path style="opacity:1" fill="#d5a464" d="M 119.5,117.5 C 122.226,117.264 124.559,118.097 126.5,120C 128.842,121.392 128.842,122.225 126.5,122.5C 121.536,124.665 116.536,124.998 111.5,123.5C 112.873,123.657 114.207,123.49 115.5,123C 114.263,122.768 113.263,122.268 112.5,121.5C 114.806,121.007 117.139,120.674 119.5,120.5C 119.5,119.5 119.5,118.5 119.5,117.5 Z"/></g>
<g><path style="opacity:1" fill="#886b55" d="M 195.5,118.5 C 197.857,118.337 200.19,118.503 202.5,119C 211.418,126.318 210.085,130.651 198.5,132C 194.899,133.96 191.899,136.626 189.5,140C 187.527,140.495 185.527,140.662 183.5,140.5C 180.66,135.365 180.994,130.365 184.5,125.5C 187.687,122.407 191.354,120.073 195.5,118.5 Z"/></g>
<g><path style="opacity:1" fill="#5f4b3b" d="M 171.5,120.5 C 171.676,124.192 170.009,126.192 166.5,126.5C 166.002,129.326 164.669,131.66 162.5,133.5C 160.633,131.188 160.133,128.521 161,125.5C 164.209,123.922 166.376,121.422 167.5,118C 170.879,117.289 172.379,115.122 172,111.5C 172.634,114.555 172.468,117.555 171.5,120.5 Z"/></g>
<g><path style="opacity:1" fill="#3e2116" d="M 42.5,70.5 C 41.8696,76.5335 43.8696,81.3668 48.5,85C 50.3348,83.8212 51.8348,81.9879 53,79.5C 53.3826,80.056 53.8826,80.3893 54.5,80.5C 54.5,81.5 54.5,82.5 54.5,83.5C 52.5409,84.3863 51.0409,86.3863 50,89.5C 49.2869,96.8875 50.6202,103.887 54,110.5C 54.9057,112.612 56.4057,113.445 58.5,113C 57.0004,109.57 55.5004,106.07 54,102.5C 53.8333,100.667 53.6667,98.8333 53.5,97C 53.5465,94.7047 54.2132,92.8714 55.5,91.5C 56.2725,95.7496 56.7725,100.083 57,104.5C 57.9533,106.455 59.2866,108.122 61,109.5C 61.0197,114.723 62.0197,119.723 64,124.5C 69.8333,129 75,134.167 79.5,140C 83.2299,140.911 86.5632,142.411 89.5,144.5C 88.475,144.897 88.3083,145.563 89,146.5C 90.5185,147.163 91.6851,148.163 92.5,149.5C 89.2309,149.077 86.0642,149.077 83,149.5C 81.0653,151.034 79.8987,153.034 79.5,155.5C 78.7611,155.631 78.0944,155.464 77.5,155C 78.7736,154.023 78.7736,153.189 77.5,152.5C 78.4577,151.038 79.6244,149.705 81,148.5C 81.6667,146.5 81.6667,144.5 81,142.5C 78.0292,140.936 75.1959,139.27 72.5,137.5C 68.6874,132.188 64.3541,127.355 59.5,123C 60.7836,121.703 60.6169,120.536 59,119.5C 56.9131,122.07 55.0798,124.737 53.5,127.5C 53.5,126.833 53.1667,126.5 52.5,126.5C 54.3642,123.277 56.3642,120.11 58.5,117C 57.8333,116.333 57.1667,116.333 56.5,117C 54.9594,119.916 53.2927,122.749 51.5,125.5C 47.5,128.833 43.8333,132.5 40.5,136.5C 42.9612,136.237 45.6279,136.571 48.5,137.5C 48.3874,140.049 49.0541,142.382 50.5,144.5C 48.8917,145.318 47.2251,145.985 45.5,146.5C 40.934,142.996 37.6006,138.663 35.5,133.5C 32.5999,132.557 30.2666,130.89 28.5,128.5C 27.0069,127.688 26.3402,126.355 26.5,124.5C 28.2389,116.263 32.5723,109.763 39.5,105C 42.0135,103.748 44.6802,103.248 47.5,103.5C 47.219,98.4351 47.5524,93.4351 48.5,88.5C 45.3515,84.7103 42.6848,80.7103 40.5,76.5C 40.595,74.2143 41.2616,72.2143 42.5,70.5 Z"/></g>
<g><path style="opacity:1" fill="#945836" d="M 41.5,106.5 C 42.5,106.5 43.5,106.5 44.5,106.5C 44.1192,108.942 44.7859,109.609 46.5,108.5C 50.3507,111.541 52.0173,115.541 51.5,120.5C 51.6716,121.492 51.3382,122.158 50.5,122.5C 50.1353,119.375 49.302,116.375 48,113.5C 46.7592,111.579 45.2592,111.246 43.5,112.5C 41.3452,115.818 39.0119,118.985 36.5,122C 36.6448,122.772 36.9781,123.439 37.5,124C 40.7223,124.199 43.7223,125.032 46.5,126.5C 44.6597,128.669 42.3263,130.002 39.5,130.5C 37.1276,129.277 34.6276,128.277 32,127.5C 31.8333,127 31.6667,126.5 31.5,126C 36.8978,121.184 36.2311,120.351 29.5,123.5C 29.5,122.5 29.5,121.5 29.5,120.5C 31.0191,116.801 33.1858,113.468 36,110.5C 37.73,108.924 39.5633,107.59 41.5,106.5 Z"/></g>
<g><path style="opacity:1" fill="#b67850" d="M 50.5,122.5 C 50.0432,124.773 48.7099,126.106 46.5,126.5C 43.7223,125.032 40.7223,124.199 37.5,124C 36.9781,123.439 36.6448,122.772 36.5,122C 39.0119,118.985 41.3452,115.818 43.5,112.5C 45.2592,111.246 46.7592,111.579 48,113.5C 49.302,116.375 50.1353,119.375 50.5,122.5 Z"/></g>
<g><path style="opacity:1" fill="#6f4227" d="M 41.5,106.5 C 47.8517,105.276 51.8517,108.11 53.5,115C 53.2994,117.111 52.6327,118.945 51.5,120.5C 52.0173,115.541 50.3507,111.541 46.5,108.5C 44.7859,109.609 44.1192,108.942 44.5,106.5C 43.5,106.5 42.5,106.5 41.5,106.5 Z"/></g>
<g><path style="opacity:1" fill="#907864" d="M 154.5,137.5 C 151.956,137.896 149.789,137.229 148,135.5C 147.253,132.076 147.42,128.743 148.5,125.5C 149.594,124.418 150.927,123.752 152.5,123.5C 161.171,126.9 161.837,131.567 154.5,137.5 Z"/></g>
<g><path style="opacity:1" fill="#6a4535" d="M 52.5,126.5 C 50.3772,129.867 49.0439,133.534 48.5,137.5C 45.6279,136.571 42.9612,136.237 40.5,136.5C 43.8333,132.5 47.5,128.833 51.5,125.5C 53.2927,122.749 54.9594,119.916 56.5,117C 57.1667,116.333 57.8333,116.333 58.5,117C 56.3642,120.11 54.3642,123.277 52.5,126.5 Z"/></g>
<g><path style="opacity:1" fill="#784831" d="M 108.5,122.5 C 109.391,123.11 110.391,123.443 111.5,123.5C 116.536,124.998 121.536,124.665 126.5,122.5C 128.751,123.015 130.751,124.015 132.5,125.5C 131.751,126.531 131.085,127.698 130.5,129C 129.906,129.464 129.239,129.631 128.5,129.5C 124.836,129.36 121.336,130.027 118,131.5C 116.93,131.472 116.097,131.139 115.5,130.5C 118.245,130.627 120.245,129.46 121.5,127C 118.167,126.667 114.833,126.333 111.5,126C 109.192,124.133 106.525,123.133 103.5,123C 105.134,122.506 106.801,122.34 108.5,122.5 Z"/></g>
<g><path style="opacity:1" fill="#653c23" d="M 29.5,120.5 C 29.5,121.5 29.5,122.5 29.5,123.5C 36.2311,120.351 36.8978,121.184 31.5,126C 31.6667,126.5 31.8333,127 32,127.5C 34.6276,128.277 37.1276,129.277 39.5,130.5C 38.9032,131.139 38.0698,131.472 37,131.5C 33.934,130.979 31.1007,129.979 28.5,128.5C 28.1936,125.615 28.5269,122.948 29.5,120.5 Z"/></g>
<g><path style="opacity:1" fill="#8c573e" d="M 94.5,119.5 C 99.3224,120.179 103.989,121.179 108.5,122.5C 106.801,122.34 105.134,122.506 103.5,123C 106.525,123.133 109.192,124.133 111.5,126C 114.833,126.333 118.167,126.667 121.5,127C 120.245,129.46 118.245,130.627 115.5,130.5C 112.316,129.357 108.983,128.691 105.5,128.5C 106.609,127.71 107.942,127.21 109.5,127C 107.038,125.784 104.371,125.118 101.5,125C 99.9739,123.113 97.9739,122.113 95.5,122C 94.7476,121.329 94.4142,120.496 94.5,119.5 Z"/></g>
<g><path style="opacity:1" fill="#714b3a" d="M 72.5,137.5 C 71.1554,139.697 69.9888,142.03 69,144.5C 68.1841,145.823 67.0174,146.489 65.5,146.5C 61.7706,144.549 58.2706,142.216 55,139.5C 55.7375,132.184 54.5708,131.851 51.5,138.5C 50.6143,137.675 50.281,136.675 50.5,135.5C 50.9402,132.62 51.9402,129.954 53.5,127.5C 55.0798,124.737 56.9131,122.07 59,119.5C 60.6169,120.536 60.7836,121.703 59.5,123C 64.3541,127.355 68.6874,132.188 72.5,137.5 Z"/></g>
<g><path style="opacity:1" fill="#3c1e14" d="M 57.5,125.5 C 58.2389,125.369 58.9056,125.536 59.5,126C 55.9557,131.94 55.2891,131.773 57.5,125.5 Z"/></g>
<g><path style="opacity:1" fill="#5f483a" d="M 220.5,150.5 C 219.231,147.238 217.231,144.571 214.5,142.5C 215.139,141.903 215.472,141.07 215.5,140C 216.235,131.727 212.901,129.394 205.5,133C 199.897,135.048 195.064,138.214 191,142.5C 188.826,147.17 190.326,149.837 195.5,150.5C 194.694,151.728 193.694,152.728 192.5,153.5C 189.329,151.481 187.996,148.481 188.5,144.5C 185.656,144.657 183.989,143.324 183.5,140.5C 185.527,140.662 187.527,140.495 189.5,140C 191.899,136.626 194.899,133.96 198.5,132C 210.085,130.651 211.418,126.318 202.5,119C 200.19,118.503 197.857,118.337 195.5,118.5C 205.049,113.621 211.382,116.287 214.5,126.5C 214.32,127.554 213.987,128.554 213.5,129.5C 215.583,130.959 217.75,132.292 220,133.5C 222.898,137.784 223.064,142.117 220.5,146.5C 225.233,149.934 227.067,154.601 226,160.5C 225.667,160.167 225.333,159.833 225,159.5C 224.528,155.89 223.028,152.89 220.5,150.5 Z"/></g>
<g><path style="opacity:1" fill="#56382b" d="M 72.5,137.5 C 75.1959,139.27 78.0292,140.936 81,142.5C 81.6667,144.5 81.6667,146.5 81,148.5C 79.6244,149.705 78.4577,151.038 77.5,152.5C 75.7345,156.051 73.0678,157.384 69.5,156.5C 69.5774,155.25 70.244,154.417 71.5,154C 69.6664,151.337 67.6664,148.837 65.5,146.5C 67.0174,146.489 68.1841,145.823 69,144.5C 69.9888,142.03 71.1554,139.697 72.5,137.5 Z"/></g>
<g><path style="opacity:1" fill="#482c21" d="M 148.5,157.5 C 146.745,156.038 145.412,154.205 144.5,152C 141.518,151.502 138.518,151.335 135.5,151.5C 138.305,150.681 141.305,150.181 144.5,150C 146.888,148.139 149.554,146.806 152.5,146C 156.941,142.563 161.107,138.73 165,134.5C 165.977,139.734 165.31,144.734 163,149.5C 158.675,153.079 153.842,155.746 148.5,157.5 Z"/></g>
<g><path style="opacity:0.059" fill="#040100" d="M 177.5,137.5 C 182.257,142.445 186.091,148.112 189,154.5C 189.498,157.817 189.665,161.15 189.5,164.5C 186.794,164.575 184.127,164.908 181.5,165.5C 182.176,157.01 178.843,150.843 171.5,147C 174.647,144.536 176.647,141.37 177.5,137.5 Z"/></g>
<g><path style="opacity:1" fill="#42271d" d="M 65.5,146.5 C 67.6664,148.837 69.6664,151.337 71.5,154C 70.244,154.417 69.5774,155.25 69.5,156.5C 68.4923,153.972 66.8257,151.805 64.5,150C 60.5219,148.101 57.0219,145.601 54,142.5C 53.6924,143.308 53.1924,143.975 52.5,144.5C 49.7562,141.771 49.0896,138.771 50.5,135.5C 50.281,136.675 50.6143,137.675 51.5,138.5C 54.5708,131.851 55.7375,132.184 55,139.5C 58.2706,142.216 61.7706,144.549 65.5,146.5 Z"/></g>
<g><path style="opacity:1" fill="#8f725b" d="M 214.5,142.5 C 212.135,141.406 209.635,140.739 207,140.5C 205.615,140.514 204.449,140.848 203.5,141.5C 199.435,143.233 196.768,146.233 195.5,150.5C 190.326,149.837 188.826,147.17 191,142.5C 195.064,138.214 199.897,135.048 205.5,133C 212.901,129.394 216.235,131.727 215.5,140C 215.472,141.07 215.139,141.903 214.5,142.5 Z"/></g>
<g><path style="opacity:1" fill="#503124" d="M 203.5,141.5 C 204.449,140.848 205.615,140.514 207,140.5C 209.635,140.739 212.135,141.406 214.5,142.5C 217.231,144.571 219.231,147.238 220.5,150.5C 220.649,151.552 220.483,152.552 220,153.5C 216.95,151.451 214.617,148.784 213,145.5C 212.583,146.756 211.75,147.423 210.5,147.5C 209.415,145.413 207.749,144.08 205.5,143.5C 205.5,142.167 204.833,141.5 203.5,141.5 Z"/></g>
<g><path style="opacity:0.004" fill="#060200" d="M -0.5,144.5 C 42.1667,145.167 42.1667,145.833 -0.5,146.5C -0.5,145.833 -0.5,145.167 -0.5,144.5 Z"/></g>
<g><path style="opacity:1" fill="#8b725e" d="M 63.5,61.5 C 63.6633,63.8568 63.4966,66.1902 63,68.5C 61.7949,69.0712 60.6283,69.7379 59.5,70.5C 58.8716,73.6683 57.8716,76.6683 56.5,79.5C 57.4666,82.229 58.8,84.729 60.5,87C 59.0096,87.7455 58.0096,88.9121 57.5,90.5C 59.1173,94.603 59.9507,98.9364 60,103.5C 60.3768,104.942 61.2101,105.942 62.5,106.5C 64.2994,111.262 65.4661,116.262 66,121.5C 68.9866,124.131 72.1533,126.131 75.5,127.5C 75.5461,131.382 77.3794,134.048 81,135.5C 82.586,139.954 85.2526,140.621 89,137.5C 90.0458,139.09 91.2125,140.59 92.5,142C 96.211,142.175 99.8776,142.675 103.5,143.5C 103.977,144.478 104.643,145.311 105.5,146C 113.385,146.363 121.051,146.03 128.5,145C 130.547,143.927 132.547,142.761 134.5,141.5C 135.246,140.264 135.579,138.93 135.5,137.5C 137.872,136.277 140.372,135.277 143,134.5C 143.333,132.167 143.667,129.833 144,127.5C 144.377,126.058 145.21,125.058 146.5,124.5C 147.167,124.833 147.833,125.167 148.5,125.5C 147.42,128.743 147.253,132.076 148,135.5C 149.789,137.229 151.956,137.896 154.5,137.5C 153.081,138.451 151.415,138.784 149.5,138.5C 149.483,140.565 149.15,142.565 148.5,144.5C 147.653,145.966 146.32,146.8 144.5,147C 128.439,150.759 112.439,151.093 96.5,148C 93.8608,147.347 91.5274,146.18 89.5,144.5C 86.5632,142.411 83.2299,140.911 79.5,140C 75,134.167 69.8333,129 64,124.5C 62.0197,119.723 61.0197,114.723 61,109.5C 59.2866,108.122 57.9533,106.455 57,104.5C 56.7725,100.083 56.2725,95.7496 55.5,91.5C 55.8064,88.6146 55.4731,85.9479 54.5,83.5C 54.5,82.5 54.5,81.5 54.5,80.5C 54.3398,78.8008 54.5065,77.1341 55,75.5C 57.7282,70.6417 60.5616,65.9751 63.5,61.5 Z"/></g>
<g><path style="opacity:1" fill="#b09e88" d="M 75.5,127.5 C 76.7502,129.922 78.5835,131.922 81,133.5C 81.3333,133.167 81.6667,132.833 82,132.5C 88.0367,134.679 94.0367,137.012 100,139.5C 104.616,137.984 109.283,136.65 114,135.5C 115.726,137.098 116.559,136.765 116.5,134.5C 122.062,133.658 127.729,133.658 133.5,134.5C 134.906,134.973 135.573,135.973 135.5,137.5C 135.579,138.93 135.246,140.264 134.5,141.5C 132.547,142.761 130.547,143.927 128.5,145C 121.051,146.03 113.385,146.363 105.5,146C 104.643,145.311 103.977,144.478 103.5,143.5C 99.8776,142.675 96.211,142.175 92.5,142C 91.2125,140.59 90.0458,139.09 89,137.5C 85.2526,140.621 82.586,139.954 81,135.5C 77.3794,134.048 75.5461,131.382 75.5,127.5 Z"/></g>
<g><path style="opacity:1" fill="#8f7561" d="M 133.5,134.5 C 127.729,133.658 122.062,133.658 116.5,134.5C 115.5,134.167 114.833,133.5 114.5,132.5C 115.93,132.421 117.264,132.754 118.5,133.5C 123.782,130.736 128.782,131.069 133.5,134.5 Z"/></g>
<g><path style="opacity:1" fill="#43291c" d="M 64.5,160.5 C 55.7613,158.171 47.7613,159.671 40.5,165C 39.7476,165.671 39.4142,166.504 39.5,167.5C 37.9462,172.047 38.6129,176.38 41.5,180.5C 40.8728,181.417 40.5394,182.417 40.5,183.5C 39.3709,185.628 39.2042,187.961 40,190.5C 41.3226,193.965 42.8226,197.299 44.5,200.5C 43.3871,201.946 43.2204,203.613 44,205.5C 44.9448,209.788 47.4448,212.454 51.5,213.5C 52.4013,212.71 53.0679,211.71 53.5,210.5C 54.1667,210.5 54.5,210.833 54.5,211.5C 53.1968,215.667 53.1968,219.834 54.5,224C 61.2898,225.985 64.6231,223.485 64.5,216.5C 65.3446,217.671 66.0113,219.005 66.5,220.5C 64.3862,221.784 63.3862,223.784 63.5,226.5C 59.6924,226.837 56.0257,226.337 52.5,225C 51.5495,221.943 51.2161,218.777 51.5,215.5C 49.2776,215.822 47.4443,215.155 46,213.5C 44.4818,209.99 42.9818,206.49 41.5,203C 42.3295,201.535 42.4962,200.035 42,198.5C 36.2971,193.061 35.4637,187.061 39.5,180.5C 35.2562,173.935 35.9228,167.768 41.5,162C 43.7274,161.059 45.7274,159.892 47.5,158.5C 48.3594,148.225 53.3594,145.725 62.5,151C 66.4887,153.75 67.1554,156.916 64.5,160.5 Z"/></g>
<g><path style="opacity:1" fill="#6c4433" d="M 205.5,143.5 C 206.5,144.833 207.5,146.167 208.5,147.5C 207.609,149.609 206.442,151.609 205,153.5C 204.294,159.87 204.461,166.203 205.5,172.5C 203.436,174.492 202.103,176.825 201.5,179.5C 197.515,170.591 196.015,161.257 197,151.5C 197.909,146.608 200.742,143.941 205.5,143.5 Z"/></g>
<g><path style="opacity:1" fill="#503226" d="M 92.5,149.5 C 96.4517,150.196 100.452,150.696 104.5,151C 107.687,154.266 111.353,155.266 115.5,154C 117.114,156.127 119.114,157.627 121.5,158.5C 123.401,160.796 125.734,162.629 128.5,164C 126.728,165.487 124.728,165.82 122.5,165C 119.268,161.638 118.602,161.638 120.5,165C 104.501,170.943 90.8343,167.776 79.5,155.5C 79.8987,153.034 81.0653,151.034 83,149.5C 86.0642,149.077 89.2309,149.077 92.5,149.5 Z"/></g>
<g><path style="opacity:0.004" fill="#0f0702" d="M 38.5,151.5 C 38.33,152.822 38.6634,153.989 39.5,155C 38.2068,155.49 36.8734,155.657 35.5,155.5C 35.5,154.167 35.5,152.833 35.5,151.5C 36.5,151.5 37.5,151.5 38.5,151.5 Z"/></g>
<g><path style="opacity:1" fill="#674537" d="M 52.5,149.5 C 57.7923,150.465 61.1256,153.465 62.5,158.5C 58.5,158.5 54.5,158.5 50.5,158.5C 50.0653,155.162 50.7319,152.162 52.5,149.5 Z"/></g>
<g><path style="opacity:1" fill="#3e2419" d="M 195.5,111.5 C 195.953,112.458 196.619,113.292 197.5,114C 201.152,114.499 204.818,114.665 208.5,114.5C 210.491,116.457 212.491,118.457 214.5,120.5C 215.966,123.247 216.799,126.247 217,129.5C 223.178,133.018 225.344,138.185 223.5,145C 227.999,150.148 229.332,155.981 227.5,162.5C 226.305,162.866 225.639,163.699 225.5,165C 228.864,172.441 228.031,179.275 223,185.5C 221.124,172.04 216.958,159.373 210.5,147.5C 211.75,147.423 212.583,146.756 213,145.5C 214.617,148.784 216.95,151.451 220,153.5C 220.483,152.552 220.649,151.552 220.5,150.5C 223.028,152.89 224.528,155.89 225,159.5C 225.333,159.833 225.667,160.167 226,160.5C 227.067,154.601 225.233,149.934 220.5,146.5C 223.064,142.117 222.898,137.784 220,133.5C 217.75,132.292 215.583,130.959 213.5,129.5C 213.987,128.554 214.32,127.554 214.5,126.5C 211.382,116.287 205.049,113.621 195.5,118.5C 191.354,120.073 187.687,122.407 184.5,125.5C 183.867,125.12 183.2,124.787 182.5,124.5C 185.543,119.71 188.209,114.71 190.5,109.5C 191.853,111.701 193.52,112.368 195.5,111.5 Z"/></g>
<g><path style="opacity:1" fill="#59382a" d="M 135.5,151.5 C 138.518,151.335 141.518,151.502 144.5,152C 145.412,154.205 146.745,156.038 148.5,157.5C 142.99,160.106 137.156,161.773 131,162.5C 127.669,161.585 124.502,160.252 121.5,158.5C 120.524,157.185 119.524,155.852 118.5,154.5C 124.341,154.02 130.008,153.02 135.5,151.5 Z"/></g>
<g><path style="opacity:1" fill="#b09c84" d="M 64.5,160.5 C 64.8417,161.338 65.5084,161.672 66.5,161.5C 66.5715,164.193 66.9049,166.86 67.5,169.5C 67.3601,171.03 66.6935,172.03 65.5,172.5C 61.4594,164.928 55.7928,163.261 48.5,167.5C 46.9137,169.173 46.2471,171.173 46.5,173.5C 48.4147,173.216 50.0813,173.549 51.5,174.5C 45.504,175.44 41.504,173.107 39.5,167.5C 39.4142,166.504 39.7476,165.671 40.5,165C 47.7613,159.671 55.7613,158.171 64.5,160.5 Z"/></g>
<g><path style="opacity:0.996" fill="#694c35" d="M 161.5,153.5 C 162.525,153.897 162.692,154.563 162,155.5C 154.949,160.109 147.449,163.775 139.5,166.5C 139.083,165.876 138.416,165.543 137.5,165.5C 134.284,166.795 130.951,167.462 127.5,167.5C 127.953,166.542 128.619,165.708 129.5,165C 140.952,163.239 151.619,159.406 161.5,153.5 Z"/></g>
<g><path style="opacity:1" fill="#704736" d="M 146.5,178.5 C 147.38,175.557 147.714,172.224 147.5,168.5C 146.311,167.571 144.978,167.238 143.5,167.5C 149.87,162.427 157.203,160.093 165.5,160.5C 165.665,164.182 165.499,167.848 165,171.5C 161.714,175.241 158.547,179.075 155.5,183C 154.167,183.667 152.833,183.667 151.5,183C 149.937,181.264 148.27,179.764 146.5,178.5 Z"/></g>
<g><path style="opacity:1" fill="#685040" d="M 67.5,162.5 C 74.0006,165.327 76.334,170.327 74.5,177.5C 73.8902,178.391 73.5569,179.391 73.5,180.5C 72.7109,180.217 72.0442,179.717 71.5,179C 73.6729,176.108 74.0063,172.941 72.5,169.5C 70.0901,167.674 68.4234,165.34 67.5,162.5 Z"/></g>
<g><path style="opacity:1" fill="#967a5f" d="M 139.5,166.5 C 133.337,168.624 127.004,169.957 120.5,170.5C 117.813,170.664 115.146,170.497 112.5,170C 117.336,169.32 122.003,168.486 126.5,167.5C 126.833,167.5 127.167,167.5 127.5,167.5C 130.951,167.462 134.284,166.795 137.5,165.5C 138.416,165.543 139.083,165.876 139.5,166.5 Z"/></g>
<g><path style="opacity:1" fill="#c1b097" d="M 65.5,172.5 C 60.8528,173.239 56.1862,173.906 51.5,174.5C 50.0813,173.549 48.4147,173.216 46.5,173.5C 46.2471,171.173 46.9137,169.173 48.5,167.5C 55.7928,163.261 61.4594,164.928 65.5,172.5 Z"/></g>
<g><path style="opacity:1" fill="#745943" d="M 126.5,167.5 C 122.003,168.486 117.336,169.32 112.5,170C 115.146,170.497 117.813,170.664 120.5,170.5C 116.03,171.486 111.363,171.819 106.5,171.5C 105.711,171.217 105.044,170.717 104.5,170C 111.694,167.972 119.027,167.139 126.5,167.5 Z"/></g>
<g><path style="opacity:1" fill="#40251b" d="M 208.5,147.5 C 214.489,158.959 218.822,171.125 221.5,184C 221.472,185.07 221.139,185.903 220.5,186.5C 218.396,186.293 216.063,186.126 213.5,186C 210.17,181.774 207.503,177.274 205.5,172.5C 204.461,166.203 204.294,159.87 205,153.5C 206.442,151.609 207.609,149.609 208.5,147.5 Z"/></g>
<g><path style="opacity:1" fill="#3d2116" d="M 203.5,141.5 C 204.833,141.5 205.5,142.167 205.5,143.5C 200.742,143.941 197.909,146.608 197,151.5C 196.015,161.257 197.515,170.591 201.5,179.5C 202.666,182.503 204.333,185.17 206.5,187.5C 203.615,187.194 200.948,187.527 198.5,188.5C 185.848,189.182 173.181,189.682 160.5,190C 159.956,190.717 159.289,191.217 158.5,191.5C 157.5,191.5 156.5,191.5 155.5,191.5C 153.183,187.854 150.516,184.52 147.5,181.5C 146.5,180.833 145.5,180.167 144.5,179.5C 144.5,179.167 144.5,178.833 144.5,178.5C 145.167,178.5 145.833,178.5 146.5,178.5C 148.27,179.764 149.937,181.264 151.5,183C 152.833,183.667 154.167,183.667 155.5,183C 158.547,179.075 161.714,175.241 165,171.5C 165.499,167.848 165.665,164.182 165.5,160.5C 157.203,160.093 149.87,162.427 143.5,167.5C 137.552,169.037 131.552,170.371 125.5,171.5C 125.5,173.167 125.5,174.833 125.5,176.5C 124.549,175.081 124.216,173.415 124.5,171.5C 122.088,171.244 120.421,172.244 119.5,174.5C 117.821,172.896 115.821,172.229 113.5,172.5C 111.784,172.629 110.117,172.962 108.5,173.5C 107.833,172.833 107.167,172.167 106.5,171.5C 111.363,171.819 116.03,171.486 120.5,170.5C 127.004,169.957 133.337,168.624 139.5,166.5C 147.449,163.775 154.949,160.109 162,155.5C 162.692,154.563 162.525,153.897 161.5,153.5C 171.436,147.55 177.436,150.217 179.5,161.5C 176.259,161.878 173.259,162.878 170.5,164.5C 169.451,161.92 168.784,159.254 168.5,156.5C 167.325,156.281 166.325,156.614 165.5,157.5C 166.823,161.407 167.823,165.407 168.5,169.5C 169.971,168.619 170.804,167.286 171,165.5C 171.483,166.448 171.649,167.448 171.5,168.5C 173.099,168.232 174.432,168.566 175.5,169.5C 169.15,170.001 164.484,173.001 161.5,178.5C 159.994,181.469 160.327,184.302 162.5,187C 167.489,187.499 172.489,187.666 177.5,187.5C 178.959,187.567 180.292,187.234 181.5,186.5C 188.46,187.249 195.46,186.916 202.5,185.5C 201.143,182.399 199.81,179.399 198.5,176.5C 197.738,172.215 196.405,168.215 194.5,164.5C 194.5,164.167 194.5,163.833 194.5,163.5C 194.81,160.287 194.477,157.287 193.5,154.5C 193.5,153.833 193.167,153.5 192.5,153.5C 193.694,152.728 194.694,151.728 195.5,150.5C 196.768,146.233 199.435,143.233 203.5,141.5 Z"/></g>
<g><path style="opacity:1" fill="#bca68c" d="M 184.5,167.5 C 187.619,167.124 189.953,168.291 191.5,171C 189.467,175.645 186.467,179.478 182.5,182.5C 181.167,182.5 179.833,182.5 178.5,182.5C 175.706,178.023 176.039,173.69 179.5,169.5C 180.82,168.058 182.486,167.392 184.5,167.5 Z"/></g>
<g><path style="opacity:1" fill="#af987e" d="M 194.5,164.5 C 196.405,168.215 197.738,172.215 198.5,176.5C 197.505,179.592 195.505,180.259 192.5,178.5C 189.692,181.041 186.359,182.374 182.5,182.5C 186.467,179.478 189.467,175.645 191.5,171C 189.953,168.291 187.619,167.124 184.5,167.5C 187.619,166.13 190.952,165.13 194.5,164.5 Z"/></g>
<g><path style="opacity:1" fill="#623d2c" d="M 179.5,161.5 C 179.657,162.873 179.49,164.207 179,165.5C 175.539,167.427 175.706,168.761 179.5,169.5C 176.039,173.69 175.706,178.023 178.5,182.5C 178.771,184.43 179.771,185.764 181.5,186.5C 180.292,187.234 178.959,187.567 177.5,187.5C 178.045,185.601 177.378,183.934 175.5,182.5C 175.021,178.089 175.688,173.922 177.5,170C 176.906,169.536 176.239,169.369 175.5,169.5C 174.432,168.566 173.099,168.232 171.5,168.5C 171.649,167.448 171.483,166.448 171,165.5C 170.804,167.286 169.971,168.619 168.5,169.5C 167.823,165.407 166.823,161.407 165.5,157.5C 166.325,156.614 167.325,156.281 168.5,156.5C 168.784,159.254 169.451,161.92 170.5,164.5C 173.259,162.878 176.259,161.878 179.5,161.5 Z"/></g>
<g><path style="opacity:1" fill="#7f634d" d="M 193.5,154.5 C 194.477,157.287 194.81,160.287 194.5,163.5C 193.5,163.5 192.5,163.5 191.5,163.5C 191.336,160.813 191.503,158.146 192,155.5C 192.383,154.944 192.883,154.611 193.5,154.5 Z"/></g>
<g><path style="opacity:1" fill="#8b5a44" d="M 143.5,167.5 C 144.978,167.238 146.311,167.571 147.5,168.5C 147.714,172.224 147.38,175.557 146.5,178.5C 145.833,178.5 145.167,178.5 144.5,178.5C 139.28,174.533 133.947,174.533 128.5,178.5C 127.482,177.807 126.482,177.141 125.5,176.5C 125.5,174.833 125.5,173.167 125.5,171.5C 131.552,170.371 137.552,169.037 143.5,167.5 Z"/></g>
<g><path style="opacity:1" fill="#ae967b" d="M 175.5,169.5 C 176.239,169.369 176.906,169.536 177.5,170C 175.688,173.922 175.021,178.089 175.5,182.5C 170.86,183.513 166.193,183.513 161.5,182.5C 161.5,181.167 161.5,179.833 161.5,178.5C 164.484,173.001 169.15,170.001 175.5,169.5 Z"/></g>
<g><path style="opacity:1" fill="#503327" d="M 108.5,173.5 C 110.117,172.962 111.784,172.629 113.5,172.5C 113.196,173.15 112.863,173.817 112.5,174.5C 109.743,175.029 107.243,176.029 105,177.5C 104.333,178.833 104.333,180.167 105,181.5C 107.258,183.43 109.758,184.93 112.5,186C 116.362,186.055 120.028,186.222 123.5,186.5C 121.297,186.604 119.297,187.27 117.5,188.5C 115.02,189.242 112.687,190.242 110.5,191.5C 109.833,191.5 109.5,191.833 109.5,192.5C 102.396,191.559 98.3956,187.393 97.5,180C 99.1478,174.153 102.814,171.986 108.5,173.5 Z"/></g>
<g><path style="opacity:1" fill="#7b513d" d="M 125.5,176.5 C 125.703,178.044 126.37,179.378 127.5,180.5C 126.91,181.799 125.91,182.632 124.5,183C 125.684,184.145 125.684,185.312 124.5,186.5C 124.167,186.5 123.833,186.5 123.5,186.5C 120.028,186.222 116.362,186.055 112.5,186C 109.758,184.93 107.258,183.43 105,181.5C 104.333,180.167 104.333,178.833 105,177.5C 107.243,176.029 109.743,175.029 112.5,174.5C 112.863,173.817 113.196,173.15 113.5,172.5C 115.821,172.229 117.821,172.896 119.5,174.5C 120.421,172.244 122.088,171.244 124.5,171.5C 124.216,173.415 124.549,175.081 125.5,176.5 Z"/></g>
<g><path style="opacity:1" fill="#5a3a2d" d="M 205.5,172.5 C 207.503,177.274 210.17,181.774 213.5,186C 216.063,186.126 218.396,186.293 220.5,186.5C 218.71,187.997 216.544,188.664 214,188.5C 211.472,188.275 208.972,187.942 206.5,187.5C 204.333,185.17 202.666,182.503 201.5,179.5C 202.103,176.825 203.436,174.492 205.5,172.5 Z"/></g>
<g><path style="opacity:1" fill="#855741" d="M 144.5,179.5 C 145.5,180.167 146.5,180.833 147.5,181.5C 145.844,183.06 143.844,184.06 141.5,184.5C 139.734,182.229 137.734,180.063 135.5,178C 138.741,177.207 141.741,177.707 144.5,179.5 Z"/></g>
<g><path style="opacity:0.004" fill="#090401" d="M 83.5,183.5 C 84.9778,183.238 86.3112,183.571 87.5,184.5C 87.3764,185.107 87.0431,185.44 86.5,185.5C 85.5,184.833 84.5,184.167 83.5,183.5 Z"/></g>
<g><path style="opacity:1" fill="#7a614f" d="M 161.5,178.5 C 161.5,179.833 161.5,181.167 161.5,182.5C 166.193,183.513 170.86,183.513 175.5,182.5C 177.378,183.934 178.045,185.601 177.5,187.5C 172.489,187.666 167.489,187.499 162.5,187C 160.327,184.302 159.994,181.469 161.5,178.5 Z"/></g>
<g><path style="opacity:1" fill="#765f4d" d="M 198.5,176.5 C 199.81,179.399 201.143,182.399 202.5,185.5C 195.46,186.916 188.46,187.249 181.5,186.5C 179.771,185.764 178.771,184.43 178.5,182.5C 179.833,182.5 181.167,182.5 182.5,182.5C 186.359,182.374 189.692,181.041 192.5,178.5C 195.505,180.259 197.505,179.592 198.5,176.5 Z"/></g>
<g><path style="opacity:0.004" fill="#0e0702" d="M 86.5,185.5 C 86.8333,186.167 87.1667,186.833 87.5,187.5C 86.1667,187.5 84.8333,187.5 83.5,187.5C 83.8212,185.952 84.8212,185.285 86.5,185.5 Z"/></g>
<g><path style="opacity:1" fill="#2a150c" d="M 205.5,143.5 C 207.749,144.08 209.415,145.413 210.5,147.5C 216.958,159.373 221.124,172.04 223,185.5C 228.031,179.275 228.864,172.441 225.5,165C 225.639,163.699 226.305,162.866 227.5,162.5C 228.1,166.667 228.766,170.833 229.5,175C 228.734,184.932 223.401,190.432 213.5,191.5C 210.972,191.237 208.639,190.404 206.5,189C 203.854,188.503 201.187,188.336 198.5,188.5C 200.948,187.527 203.615,187.194 206.5,187.5C 208.972,187.942 211.472,188.275 214,188.5C 216.544,188.664 218.71,187.997 220.5,186.5C 221.139,185.903 221.472,185.07 221.5,184C 218.822,171.125 214.489,158.959 208.5,147.5C 207.5,146.167 206.5,144.833 205.5,143.5 Z"/></g>
<g><path style="opacity:0.004" fill="#0d0602" d="M 87.5,187.5 C 88.8333,187.5 90.1667,187.5 91.5,187.5C 90.6016,188.158 89.6016,188.824 88.5,189.5C 89.5063,190.396 89.5063,191.062 88.5,191.5C 87.5713,190.311 87.238,188.978 87.5,187.5 Z"/></g>
<g><path style="opacity:1" fill="#756252" d="M 117.5,188.5 C 114.858,191.647 115.191,194.647 118.5,197.5C 119.521,196.099 120.521,194.765 121.5,193.5C 121.5,193.833 121.5,194.167 121.5,194.5C 120.735,197.096 120.401,199.763 120.5,202.5C 119.732,201.737 119.232,200.737 119,199.5C 119.035,203.245 118.035,203.912 116,201.5C 113.888,198.273 112.055,194.94 110.5,191.5C 112.687,190.242 115.02,189.242 117.5,188.5 Z"/></g>
<g><path style="opacity:0.999" fill="#a69580" d="M 123.5,186.5 C 123.833,186.5 124.167,186.5 124.5,186.5C 124.312,189.206 123.312,191.539 121.5,193.5C 120.521,194.765 119.521,196.099 118.5,197.5C 115.191,194.647 114.858,191.647 117.5,188.5C 119.297,187.27 121.297,186.604 123.5,186.5 Z"/></g>
<g><path style="opacity:1" fill="#9d7f65" d="M 66.5,161.5 C 67.1667,161.5 67.5,161.833 67.5,162.5C 68.4234,165.34 70.0901,167.674 72.5,169.5C 74.0063,172.941 73.6729,176.108 71.5,179C 72.0442,179.717 72.7109,180.217 73.5,180.5C 73.5,183.167 73.5,185.833 73.5,188.5C 70.2869,188.19 67.2869,188.523 64.5,189.5C 59.8397,190.331 55.5064,191.997 51.5,194.5C 50.2073,193.355 49.0407,193.689 48,195.5C 46.951,193.893 45.451,193.227 43.5,193.5C 41.6137,190.545 40.6137,187.211 40.5,183.5C 40.5394,182.417 40.8728,181.417 41.5,180.5C 38.6129,176.38 37.9462,172.047 39.5,167.5C 41.504,173.107 45.504,175.44 51.5,174.5C 56.1862,173.906 60.8528,173.239 65.5,172.5C 66.6935,172.03 67.3601,171.03 67.5,169.5C 66.9049,166.86 66.5715,164.193 66.5,161.5 Z"/></g>
<g><path style="opacity:1" fill="#c9b89f" d="M 51.5,177.5 C 56.5111,177.334 61.5111,177.501 66.5,178C 67.9915,180.621 68.6582,183.455 68.5,186.5C 61.7862,187.61 55.1196,188.777 48.5,190C 46.0348,188.911 44.0348,187.244 42.5,185C 42.8777,183.365 43.5444,181.865 44.5,180.5C 46.8852,179.339 49.2186,178.339 51.5,177.5 Z"/></g>
<g><path style="opacity:1" fill="#42261b" d="M 144.5,178.5 C 144.5,178.833 144.5,179.167 144.5,179.5C 141.741,177.707 138.741,177.207 135.5,178C 137.734,180.063 139.734,182.229 141.5,184.5C 148.607,186.098 153.44,190.431 156,197.5C 158.49,205.17 157.99,212.503 154.5,219.5C 153.779,222.544 151.779,224.211 148.5,224.5C 148.804,223.85 149.137,223.183 149.5,222.5C 143.887,222.613 139.72,220.28 137,215.5C 133.649,208.91 132.149,201.91 132.5,194.5C 133.481,192.604 134.481,190.604 135.5,188.5C 134.37,187.378 133.703,186.044 133.5,184.5C 134.82,185.942 136.486,186.608 138.5,186.5C 138.429,182.424 136.429,179.757 132.5,178.5C 129.149,178.988 128.816,180.155 131.5,182C 128.34,181.303 126.673,182.803 126.5,186.5C 125.518,189.962 125.185,193.629 125.5,197.5C 126.361,203.886 128.361,209.886 131.5,215.5C 130.5,215.5 129.5,215.5 128.5,215.5C 125.25,213.757 122.416,211.423 120,208.5C 116.248,203.982 112.748,199.316 109.5,194.5C 109.5,193.833 109.5,193.167 109.5,192.5C 109.5,191.833 109.833,191.5 110.5,191.5C 112.055,194.94 113.888,198.273 116,201.5C 118.035,203.912 119.035,203.245 119,199.5C 119.232,200.737 119.732,201.737 120.5,202.5C 120.5,202.833 120.5,203.167 120.5,203.5C 121.242,208.085 123.742,211.418 128,213.5C 127.334,210.002 126.167,206.669 124.5,203.5C 124.326,200.126 123.826,196.793 123,193.5C 122.617,194.056 122.117,194.389 121.5,194.5C 121.5,194.167 121.5,193.833 121.5,193.5C 123.312,191.539 124.312,189.206 124.5,186.5C 125.684,185.312 125.684,184.145 124.5,183C 125.91,182.632 126.91,181.799 127.5,180.5C 126.37,179.378 125.703,178.044 125.5,176.5C 126.482,177.141 127.482,177.807 128.5,178.5C 133.947,174.533 139.28,174.533 144.5,178.5 Z"/></g>
<g><path style="opacity:1" fill="#774f3e" d="M 133.5,184.5 C 133.703,186.044 134.37,187.378 135.5,188.5C 134.481,190.604 133.481,192.604 132.5,194.5C 129.431,193.529 127.098,194.529 125.5,197.5C 125.185,193.629 125.518,189.962 126.5,186.5C 126.435,186.938 126.601,187.272 127,187.5C 129.432,186.931 131.599,185.931 133.5,184.5 Z"/></g>
<g><path style="opacity:0.999" fill="#8d5c45" d="M 133.5,184.5 C 131.599,185.931 129.432,186.931 127,187.5C 126.601,187.272 126.435,186.938 126.5,186.5C 126.673,182.803 128.34,181.303 131.5,182C 128.816,180.155 129.149,178.988 132.5,178.5C 136.429,179.757 138.429,182.424 138.5,186.5C 136.486,186.608 134.82,185.942 133.5,184.5 Z"/></g>
<g><path style="opacity:1" fill="#563724" d="M 73.5,180.5 C 74.1174,180.611 74.6174,180.944 75,181.5C 75.1816,184.226 75.6816,186.893 76.5,189.5C 79.7242,192.172 81.3909,195.672 81.5,200C 81.3552,201.226 81.0219,202.393 80.5,203.5C 81.7701,204.288 82.7701,205.288 83.5,206.5C 83.7845,208.415 83.4511,210.081 82.5,211.5C 83.1126,207.488 81.4459,205.488 77.5,205.5C 77.1667,205.5 76.8333,205.5 76.5,205.5C 73.9796,204.082 71.3129,203.082 68.5,202.5C 72.1506,202.746 75.6506,202.746 79,202.5C 79.6667,200.833 79.6667,199.167 79,197.5C 77.8822,195.235 77.0488,192.901 76.5,190.5C 74.139,190.326 71.8056,189.993 69.5,189.5C 67.8333,189.5 66.1667,189.5 64.5,189.5C 67.2869,188.523 70.2869,188.19 73.5,188.5C 73.5,185.833 73.5,183.167 73.5,180.5 Z"/></g>
<g><path style="opacity:1" fill="#9c8b77" d="M 124.5,203.5 C 123.472,203.926 122.139,203.926 120.5,203.5C 120.5,203.167 120.5,202.833 120.5,202.5C 120.401,199.763 120.735,197.096 121.5,194.5C 122.117,194.389 122.617,194.056 123,193.5C 123.826,196.793 124.326,200.126 124.5,203.5 Z"/></g>
<g><path style="opacity:1" fill="#604033" d="M 132.5,194.5 C 132.149,201.91 133.649,208.91 137,215.5C 139.72,220.28 143.887,222.613 149.5,222.5C 149.137,223.183 148.804,223.85 148.5,224.5C 140.439,225.826 134.773,222.826 131.5,215.5C 128.361,209.886 126.361,203.886 125.5,197.5C 127.098,194.529 129.431,193.529 132.5,194.5 Z"/></g>
<g><path style="opacity:0.004" fill="#020100" d="M 167.5,203.5 C 168.601,202.402 169.934,202.235 171.5,203C 170.207,203.49 168.873,203.657 167.5,203.5 Z"/></g>
<g><path style="opacity:1" fill="#83644b" d="M 68.5,202.5 C 71.3129,203.082 73.9796,204.082 76.5,205.5C 74.9397,205.481 73.4397,205.148 72,204.5C 68.8634,205.945 68.6967,207.778 71.5,210C 74.2171,212.076 77.2171,212.743 80.5,212C 81.0585,211.275 81.3918,210.442 81.5,209.5C 80.563,207.712 79.2297,206.379 77.5,205.5C 81.4459,205.488 83.1126,207.488 82.5,211.5C 82.0679,212.71 81.4013,213.71 80.5,214.5C 73.7346,215.531 68.568,213.198 65,207.5C 64.6012,207.728 64.4346,208.062 64.5,208.5C 64.1667,208.5 63.8333,208.5 63.5,208.5C 60.3695,207.908 58.0361,208.908 56.5,211.5C 55.8333,211.5 55.1667,211.5 54.5,211.5C 54.5,210.833 54.1667,210.5 53.5,210.5C 57.2388,205.631 62.2388,202.964 68.5,202.5 Z"/></g>
<g><path style="opacity:1" fill="#775e4c" d="M 44.5,200.5 C 44.238,201.978 44.5713,203.311 45.5,204.5C 48.3891,207.029 50.3891,210.029 51.5,213.5C 47.4448,212.454 44.9448,209.788 44,205.5C 43.2204,203.613 43.3871,201.946 44.5,200.5 Z"/></g>
<g><path style="opacity:1" fill="#ab967d" d="M 76.5,205.5 C 76.8333,205.5 77.1667,205.5 77.5,205.5C 79.2297,206.379 80.563,207.712 81.5,209.5C 81.3918,210.442 81.0585,211.275 80.5,212C 77.2171,212.743 74.2171,212.076 71.5,210C 68.6967,207.778 68.8634,205.945 72,204.5C 73.4397,205.148 74.9397,205.481 76.5,205.5 Z"/></g>
<g><path style="opacity:1" fill="#8e725b" d="M 40.5,183.5 C 40.6137,187.211 41.6137,190.545 43.5,193.5C 45.451,193.227 46.951,193.893 48,195.5C 49.0407,193.689 50.2073,193.355 51.5,194.5C 44.8104,198.611 44.9771,202.611 52,206.5C 53.7748,205.73 55.2748,204.563 56.5,203C 59.6331,203.046 62.2998,202.046 64.5,200C 67.5,199.667 70.5,199.333 73.5,199C 73.7205,197.201 74.0539,195.368 74.5,193.5C 72.5808,192.388 70.9142,191.054 69.5,189.5C 71.8056,189.993 74.139,190.326 76.5,190.5C 77.0488,192.901 77.8822,195.235 79,197.5C 79.6667,199.167 79.6667,200.833 79,202.5C 75.6506,202.746 72.1506,202.746 68.5,202.5C 62.2388,202.964 57.2388,205.631 53.5,210.5C 53.0679,211.71 52.4013,212.71 51.5,213.5C 50.3891,210.029 48.3891,207.029 45.5,204.5C 44.5713,203.311 44.238,201.978 44.5,200.5C 42.8226,197.299 41.3226,193.965 40,190.5C 39.2042,187.961 39.3709,185.628 40.5,183.5 Z"/></g>
<g><path style="opacity:1" fill="#c2b097" d="M 64.5,189.5 C 66.1667,189.5 67.8333,189.5 69.5,189.5C 70.9142,191.054 72.5808,192.388 74.5,193.5C 74.0539,195.368 73.7205,197.201 73.5,199C 70.5,199.333 67.5,199.667 64.5,200C 62.2998,202.046 59.6331,203.046 56.5,203C 55.2748,204.563 53.7748,205.73 52,206.5C 44.9771,202.611 44.8104,198.611 51.5,194.5C 55.5064,191.997 59.8397,190.331 64.5,189.5 Z"/></g>
<g><path style="opacity:0.996" fill="#766453" d="M 120.5,203.5 C 122.139,203.926 123.472,203.926 124.5,203.5C 126.167,206.669 127.334,210.002 128,213.5C 123.742,211.418 121.242,208.085 120.5,203.5 Z"/></g>
<g><path style="opacity:1" fill="#ab987e" d="M 63.5,208.5 C 63.7295,213.005 63.0628,217.339 61.5,221.5C 59.5,221.5 57.5,221.5 55.5,221.5C 55.2529,218.061 55.5863,214.728 56.5,211.5C 58.0361,208.908 60.3695,207.908 63.5,208.5 Z"/></g>
<g><path style="opacity:1" fill="#5e3d30" d="M 147.5,181.5 C 150.516,184.52 153.183,187.854 155.5,191.5C 158.172,197.525 159.839,203.859 160.5,210.5C 159.901,213.702 158.734,216.702 157,219.5C 156.023,220.774 155.189,220.774 154.5,219.5C 157.99,212.503 158.49,205.17 156,197.5C 153.44,190.431 148.607,186.098 141.5,184.5C 143.844,184.06 145.844,183.06 147.5,181.5 Z"/></g>
<g><path style="opacity:1" fill="#392115" d="M 83.5,206.5 C 85.8568,212.855 83.5234,216.522 76.5,217.5C 74.8559,222.251 71.8559,223.585 67.5,221.5C 71.7029,222.298 74.3695,220.631 75.5,216.5C 77.2914,215.83 78.9581,215.163 80.5,214.5C 81.4013,213.71 82.0679,212.71 82.5,211.5C 83.4511,210.081 83.7845,208.415 83.5,206.5 Z"/></g>
<g><path style="opacity:0.004" fill="#0d0602" d="M 187.5,215.5 C 188.289,215.783 188.956,216.283 189.5,217C 188.184,217.528 187.517,217.028 187.5,215.5 Z"/></g>
<g><path style="opacity:1" fill="#6e533e" d="M 80.5,214.5 C 78.9581,215.163 77.2914,215.83 75.5,216.5C 74.3695,220.631 71.7029,222.298 67.5,221.5C 66.8333,221.5 66.5,221.167 66.5,220.5C 66.0113,219.005 65.3446,217.671 64.5,216.5C 64.5,213.833 64.5,211.167 64.5,208.5C 64.4346,208.062 64.6012,207.728 65,207.5C 68.568,213.198 73.7346,215.531 80.5,214.5 Z"/></g>
<g><path style="opacity:1" fill="#786453" d="M 63.5,208.5 C 63.8333,208.5 64.1667,208.5 64.5,208.5C 64.5,211.167 64.5,213.833 64.5,216.5C 64.6231,223.485 61.2898,225.985 54.5,224C 53.1968,219.834 53.1968,215.667 54.5,211.5C 55.1667,211.5 55.8333,211.5 56.5,211.5C 55.5863,214.728 55.2529,218.061 55.5,221.5C 57.5,221.5 59.5,221.5 61.5,221.5C 63.0628,217.339 63.7295,213.005 63.5,208.5 Z"/></g>
<g><path style="opacity:0.997" fill="#2c150c" d="M 155.5,191.5 C 156.5,191.5 157.5,191.5 158.5,191.5C 160.571,197.655 161.905,203.988 162.5,210.5C 158.603,225.115 149.603,229.615 135.5,224C 133.278,221.044 130.945,218.21 128.5,215.5C 129.5,215.5 130.5,215.5 131.5,215.5C 134.773,222.826 140.439,225.826 148.5,224.5C 151.779,224.211 153.779,222.544 154.5,219.5C 155.189,220.774 156.023,220.774 157,219.5C 158.734,216.702 159.901,213.702 160.5,210.5C 159.839,203.859 158.172,197.525 155.5,191.5 Z"/></g>
</svg>
