<?xml version="1.0" standalone="no"?>
<!DOCTYPE svg PUBLIC "-//W3C//DTD SVG 20010904//EN"
 "http://www.w3.org/TR/2001/REC-SVG-20010904/DTD/svg10.dtd">
<svg version="1.0" xmlns="http://www.w3.org/2000/svg"
 width="256.000000pt" height="256.000000pt" viewBox="0 0 256.000000 256.000000"
 preserveAspectRatio="xMidYMid meet">

<g transform="translate(0.000000,256.000000) scale(0.100000,-0.100000)"
fill="#000000" stroke="none">
<path d="M1385 2252 c-25 -16 -34 -16 -65 -6 -42 15 -237 12 -267 -4 -11 -6
-29 -9 -41 -5 -27 7 -86 -13 -120 -42 -15 -12 -50 -34 -78 -48 -29 -15 -62
-40 -75 -57 -13 -18 -37 -44 -53 -60 -28 -27 -32 -28 -97 -23 -64 5 -71 4
-105 -22 -39 -30 -68 -85 -79 -151 -6 -37 -2 -46 38 -100 l44 -59 -6 -74 c-6
-69 -8 -74 -30 -78 -62 -9 -139 -86 -171 -171 -22 -58 -11 -88 44 -117 29 -16
36 -25 36 -49 0 -23 13 -43 60 -88 53 -52 60 -63 60 -97 0 -33 -4 -40 -30 -51
-50 -21 -80 -65 -80 -117 0 -29 6 -53 16 -64 15 -17 15 -20 -1 -45 -23 -35
-13 -108 19 -138 17 -15 22 -29 20 -51 -5 -39 33 -116 65 -132 18 -8 25 -21
28 -50 5 -47 25 -63 80 -63 36 0 45 4 55 25 6 13 15 22 20 19 28 -17 58 -13
77 12 11 15 35 34 53 43 18 9 39 29 46 44 12 25 11 31 -5 55 -10 15 -18 41
-19 57 -1 17 -11 53 -24 80 -37 79 -49 133 -37 164 16 43 0 101 -38 137 l-34
32 39 6 c34 5 47 1 95 -29 69 -44 139 -75 171 -75 31 0 30 -5 -6 -47 -35 -40
-37 -62 -9 -120 24 -49 62 -83 93 -83 14 0 29 -12 41 -32 22 -38 240 -259 272
-276 28 -15 108 -15 136 -1 33 17 77 60 94 93 17 32 12 102 -13 188 -23 76
-19 78 155 79 80 0 178 3 216 7 49 5 78 4 95 -5 39 -20 120 -16 157 7 18 10
42 38 54 61 17 35 20 51 14 93 -4 28 -9 88 -10 134 -1 65 -6 89 -22 110 -14
19 -19 37 -15 60 6 43 -23 106 -54 121 -16 7 -24 19 -24 36 0 15 -14 46 -30
70 -32 47 -72 63 -128 52 -23 -4 -31 1 -55 34 -24 35 -26 45 -21 93 4 32 2 68
-6 90 -12 36 -11 38 24 73 23 24 36 46 36 63 0 68 -105 153 -192 156 -50 2
-78 16 -78 40 0 8 -15 31 -32 51 -53 61 -78 101 -78 123 0 28 -67 100 -115
121 -50 23 -73 23 -110 1z m-257 -29 c-47 -4 -69 -23 -26 -23 19 0 85 -19 98
-28 2 -2 -2 -7 -10 -12 -12 -8 -13 -10 -1 -10 11 0 11 -4 -3 -19 -19 -21 -66
-17 -66 5 0 18 -18 18 -54 -1 -15 -8 -38 -15 -51 -15 -25 0 -60 -34 -60 -58 0
-11 -13 -20 -36 -26 -23 -6 -42 -19 -53 -37 -9 -15 -31 -40 -49 -55 -17 -15
-37 -40 -44 -56 -7 -15 -19 -31 -27 -34 -10 -4 -13 -14 -10 -32 3 -15 0 -47
-6 -72 -13 -52 -13 -53 0 -140 5 -36 12 -83 16 -105 5 -34 12 -44 42 -60 24
-13 45 -36 60 -65 26 -54 43 -67 99 -81 23 -6 51 -21 63 -34 17 -18 29 -22 59
-18 23 3 41 1 45 -6 4 -6 15 -11 25 -11 10 0 24 -7 31 -15 10 -12 15 -12 35 1
24 15 65 11 65 -6 0 -5 15 -6 33 -4 25 5 37 1 56 -20 17 -18 31 -24 50 -20 33
6 56 -9 47 -31 -4 -12 -13 -15 -30 -11 -18 4 -25 1 -29 -15 -5 -18 -11 -21
-44 -17 -21 3 -50 1 -66 -5 -21 -7 -33 -5 -53 8 -19 12 -29 14 -39 5 -29 -24
-258 13 -281 45 -12 16 -49 21 -39 5 13 -21 -18 -9 -44 18 -16 15 -39 36 -51
47 -20 17 -23 18 -17 3 9 -26 4 -22 -23 15 l-23 32 23 -20 c15 -13 21 -15 16
-5 -3 8 -9 23 -12 33 -4 9 -11 17 -18 17 -6 0 -23 10 -39 23 -21 17 -30 36
-38 82 -6 33 -19 75 -30 93 -11 19 -19 52 -19 78 0 24 -5 53 -12 64 -10 15 -9
23 6 39 11 12 14 21 9 21 -18 0 -33 59 -26 107 4 34 12 49 32 62 20 12 27 26
29 56 3 39 42 94 66 96 6 0 25 21 41 47 21 33 40 50 63 57 17 5 32 13 32 17 0
4 6 8 13 8 6 0 31 13 55 29 24 17 63 32 90 36 26 3 54 10 62 16 8 5 38 8 65 7
l50 -2 -47 -3z m27 -245 c33 -22 87 -48 120 -59 33 -10 83 -34 110 -53 26 -19
67 -38 89 -42 56 -9 96 -31 96 -52 0 -10 -16 -33 -35 -52 -23 -22 -41 -55 -55
-99 -12 -36 -32 -83 -45 -106 -13 -24 -26 -66 -30 -105 -12 -113 -33 -125
-111 -60 -27 22 -55 40 -64 39 -13 0 -13 -1 1 -7 19 -9 69 -48 69 -55 0 -3
-10 -5 -22 -5 -13 0 -44 -4 -70 -7 -34 -5 -62 -3 -99 9 -28 10 -75 20 -103 23
-41 5 -58 13 -86 42 -19 20 -40 45 -45 55 -6 10 -24 19 -42 20 -48 4 -63 22
-63 76 0 25 -3 50 -7 54 -20 20 -9 119 25 216 3 8 4 19 3 25 -2 5 1 7 5 3 4
-4 19 1 34 12 l27 19 -5 -27 c-3 -15 -16 -42 -30 -59 -22 -29 -24 -43 -25
-137 -2 -78 2 -108 12 -118 11 -11 12 -7 6 27 -4 22 -7 74 -6 115 2 61 7 82
27 112 13 21 24 42 24 47 0 24 63 101 87 107 15 4 45 26 67 50 48 50 56 50
141 -8z m168 15 c28 -15 59 -33 67 -41 8 -7 29 -22 47 -32 18 -11 39 -33 49
-51 l16 -32 -29 6 c-16 3 -53 22 -81 41 -29 19 -79 43 -111 52 -62 17 -171 81
-119 70 15 -3 30 -2 33 4 11 19 75 10 128 -17z m-740 -28 c21 -3 37 -12 37
-19 0 -8 -16 -37 -36 -66 -20 -29 -40 -65 -46 -81 -5 -16 -14 -29 -18 -29 -13
0 -80 82 -80 97 0 37 64 116 89 109 9 -2 33 -7 54 -11z m971 -302 c-6 -103
-20 -159 -52 -208 -18 -27 -32 -51 -32 -55 0 -3 -13 -14 -30 -23 l-30 -18 7
48 c3 26 21 76 39 110 18 35 36 80 40 100 3 21 18 50 32 66 14 15 26 27 27 27
1 0 0 -21 -1 -47z m-686 -259 c-4 -3 -12 5 -18 18 -12 22 -12 22 6 6 10 -10
15 -20 12 -24z m-390 -29 c2 -22 9 -43 15 -47 9 -5 7 -12 -5 -24 -12 -13 -20
-14 -30 -7 -7 6 -26 13 -43 15 -40 4 -43 30 -8 73 39 47 67 43 71 -10z m488
-45 c6 0 17 -7 25 -16 9 -11 -5 -7 -45 10 -32 14 -60 26 -62 26 -2 0 -4 5 -4
10 0 6 17 1 37 -10 21 -11 43 -20 49 -20z m592 -84 c4 -31 -10 -46 -45 -46
-19 0 -23 5 -23 34 0 36 11 46 45 43 14 -1 21 -11 23 -31z m286 -144 c28 -23
48 -76 52 -139 3 -45 1 -53 -14 -53 -9 0 -27 -3 -39 -6 -20 -6 -23 -3 -23 25
0 59 -53 151 -86 151 -8 0 3 21 23 49 l37 50 14 -30 c8 -16 24 -38 36 -47z
m116 55 c0 -2 -10 -12 -22 -23 l-23 -19 19 23 c18 21 26 27 26 19z m73 -12
c-17 -7 -39 -25 -49 -40 -11 -17 -20 -23 -27 -16 -5 5 -6 14 -2 20 9 15 76 50
95 50 8 0 1 -6 -17 -14z m84 9 c-3 -3 -12 -4 -19 -1 -8 3 -5 6 6 6 11 1 17 -2
13 -5z m-1462 -210 c20 -8 66 -100 58 -119 -4 -12 -14 -16 -34 -13 -18 3 -30
-1 -34 -9 -3 -9 -12 -12 -25 -8 -11 4 -20 2 -20 -4 0 -6 14 -11 30 -11 53 0
108 -37 81 -54 -5 -3 -7 -14 -4 -24 4 -15 -4 -21 -39 -29 l-43 -11 38 -1 c53
-1 96 -33 90 -65 -6 -29 -67 -70 -95 -63 -10 3 -16 1 -12 -4 3 -5 -3 -9 -13
-9 -10 0 -29 -7 -41 -16 -40 -28 -69 -27 -96 3 -39 42 -34 68 21 103 52 33 48
42 -5 10 -35 -22 -46 -25 -38 -11 3 5 -3 11 -14 14 -11 3 -20 12 -20 20 0 8
-7 17 -15 21 -23 9 -18 50 10 76 14 13 51 30 83 37 l57 13 -53 -5 c-68 -5 -79
-1 -102 48 l-20 41 27 28 c46 49 157 69 228 42z m1318 -100 c9 -36 14 -70 11
-76 -4 -6 -19 -8 -34 -4 -18 3 -33 0 -39 -8 -7 -8 -26 -17 -44 -20 -18 -3 -42
-8 -54 -10 -45 -9 -59 75 -20 118 17 19 104 56 157 65 3 1 13 -29 23 -65z
m-606 40 c-3 -3 -12 -4 -19 -1 -8 3 -5 6 6 6 11 1 17 -2 13 -5z m-40 -10 c-3
-3 -12 -4 -19 -1 -8 3 -5 6 6 6 11 1 17 -2 13 -5z m-77 -15 c-25 -4 -61 -7
-80 -7 -32 1 -31 2 10 8 25 4 61 7 80 7 31 0 30 0 -10 -8z m520 -19 c-6 -11
-11 -40 -12 -64 -2 -41 -4 -45 -33 -49 -101 -16 -137 25 -74 84 30 28 73 46
112 48 15 1 16 -2 7 -19z m-529 -172 c-8 -27 -44 -88 -51 -88 -10 0 -31 60
-25 71 7 10 61 38 77 39 3 0 3 -10 -1 -22z m2 -106 c6 -50 5 -52 -13 -42 -22
12 -26 50 -9 82 14 26 15 23 22 -40z m-458 -69 c37 -18 45 -42 20 -63 -11 -9
-21 -9 -45 3 -16 9 -43 18 -60 22 -34 7 -38 22 -12 41 23 18 55 17 97 -3z
m-145 -55 c0 -17 -5 -47 -12 -65 -10 -27 -17 -33 -40 -33 -20 0 -28 5 -29 18
-4 72 16 112 58 112 19 0 23 -5 23 -32z"/>
<path d="M840 2074 c0 -5 7 -19 15 -30 8 -10 15 -14 15 -8 0 5 -7 19 -15 30
-8 10 -15 14 -15 8z"/>
<path d="M880 2050 c0 -5 9 -10 21 -10 11 0 17 5 14 10 -3 6 -13 10 -21 10 -8
0 -14 -4 -14 -10z"/>
<path d="M1160 1790 c-18 -12 -2 -12 25 0 13 6 15 9 5 9 -8 0 -22 -4 -30 -9z"/>
<path d="M1303 1763 c32 -34 51 -93 41 -126 -12 -40 -45 -77 -77 -86 -23 -7
-26 -9 -11 -10 28 -1 70 33 90 71 28 54 2 143 -48 169 -20 10 -20 8 5 -18z"/>
<path d="M1111 1754 c-12 -15 -21 -32 -21 -38 0 -6 6 -2 12 9 6 11 18 28 26
38 8 9 12 17 9 17 -3 0 -15 -12 -26 -26z"/>
<path d="M1083 1665 c0 -22 2 -30 4 -17 2 12 2 30 0 40 -3 9 -5 -1 -4 -23z"/>
<path d="M1110 1585 c13 -14 26 -25 28 -25 3 0 -5 11 -18 25 -13 14 -26 25
-28 25 -3 0 5 -11 18 -25z"/>
<path d="M1178 1543 c7 -3 16 -2 19 1 4 3 -2 6 -13 5 -11 0 -14 -3 -6 -6z"/>
<path d="M1128 1403 c7 -3 16 -2 19 1 4 3 -2 6 -13 5 -11 0 -14 -3 -6 -6z"/>
<path d="M1168 1393 c6 -2 18 -2 25 0 6 3 1 5 -13 5 -14 0 -19 -2 -12 -5z"/>
<path d="M480 799 c0 -5 5 -7 10 -4 6 3 10 8 10 11 0 2 -4 4 -10 4 -5 0 -10
-5 -10 -11z"/>
</g>
</svg>
